<?xml version="1.0" encoding="utf-8"?>
<!-- Generator: Adobe Illustrator 25.4.1, SVG Export Plug-In . SVG Version: 6.00 Build 0)  -->
<svg version="1.1" xmlns="http://www.w3.org/2000/svg" xmlns:xlink="http://www.w3.org/1999/xlink" x="0px" y="0px"
	 viewBox="0 0 3264.61 912.09" enable-background="new 0 0 3264.61 912.09" xml:space="preserve">
<g id="The_University_of_Texas_at_Austin_00000028293629952865602380000002403378264446888885_">
	<g id="The_University_of_Texas_at_Austin">
		<path fill="#505150" d="M909.64,838.07c0,0.82-0.26,1.24-0.77,1.24c-3.22,0-5.74-0.07-7.54-0.21l-11.21-0.21l-11.21,0.21
			c-1.93,0.14-4.51,0.21-7.73,0.21c-0.26,0-0.39-0.41-0.39-1.24c0-0.82,0.13-1.24,0.39-1.24c4.38,0,7.31-0.96,8.8-2.88
			c1.48-1.92,2.22-5.7,2.22-11.33v-30.69c0-7.69-1.35-13.39-4.06-17.1c-2.71-3.71-6.83-5.56-12.37-5.56c-3.35,0-6.8,0.82-10.34,2.47
			c-3.55,1.65-6.74,3.98-9.57,7v43.87c0,5.63,0.74,9.41,2.22,11.33c1.48,1.92,4.41,2.88,8.8,2.88c0.51,0,0.77,0.41,0.77,1.24
			c0,0.82-0.26,1.24-0.77,1.24c-3.22,0-5.74-0.07-7.54-0.21l-11.21-0.21l-11.21,0.21c-1.93,0.14-4.51,0.21-7.73,0.21
			c-0.26,0-0.39-0.41-0.39-1.24c0-0.82,0.13-1.24,0.39-1.24c4.38,0,7.31-0.96,8.8-2.88c1.48-1.92,2.22-5.7,2.22-11.33V718.19
			c0-1.24-0.26-2.09-0.77-2.58c-0.52-0.48-1.42-0.72-2.71-0.72H795.4c-3.61,0-6.28,0.34-8.02,1.03c-1.74,0.69-2.9,1.89-3.48,3.6
			c-0.58,1.72-0.87,4.43-0.87,8.14v94.95c0,4.26,0.39,7.35,1.16,9.27c0.77,1.92,2.32,3.23,4.64,3.91c2.32,0.69,5.99,1.03,11.02,1.03
			c0.39,0,0.58,0.41,0.58,1.24c0,0.82-0.19,1.24-0.58,1.24c-4.51,0-8.06-0.07-10.63-0.21l-15.85-0.21l-15.08,0.21
			c-2.71,0.14-6.45,0.21-11.21,0.21c-0.26,0-0.39-0.41-0.39-1.24c0-0.82,0.13-1.24,0.39-1.24c5.03,0,8.73-0.34,11.12-1.03
			c2.38-0.69,3.99-2.02,4.83-4.02c0.84-1.99,1.26-5.05,1.26-9.17v-95.36c0-3.57-0.32-6.21-0.97-7.93c-0.65-1.72-1.81-2.88-3.48-3.5
			c-1.68-0.62-4.25-0.93-7.73-0.93c-7.86,0-14.34,2.57-19.43,7.72c-5.09,5.15-8.99,12.94-11.7,23.38c0,0.28-0.36,0.41-1.06,0.41
			c-0.71,0-1.06-0.21-1.06-0.62c0.51-5.36,1.09-12.26,1.74-20.7c0.64-8.44,0.97-14.79,0.97-19.05c0-0.69,0.35-1.03,1.06-1.03
			c0.71,0,1.06,0.34,1.06,1.03c0,3.02,3.61,4.53,10.83,4.53c11.08,0.41,24.03,0.62,38.86,0.62c19.33,0,31.83-0.21,37.5-0.62
			c7.86-0.27,14.53-2.3,20.01-6.08c5.48-3.78,9.44-8.62,11.89-14.52c0-0.41,0.39-0.62,1.16-0.62c0.51,0,0.97,0.1,1.35,0.31
			s0.58,0.45,0.58,0.72v84.03c9.02-11.26,18.88-16.89,29.58-16.89c6.96,0,12.47,2.27,16.53,6.8c4.06,4.53,6.09,10.71,6.09,18.54
			v39.75c0,5.63,0.71,9.41,2.13,11.33c1.42,1.92,4.32,2.88,8.7,2.88C909.39,836.83,909.64,837.24,909.64,838.07z"/>
		<path fill="#505150" d="M985.81,826.33c0.26,0,0.55,0.28,0.87,0.82c0.32,0.55,0.35,0.96,0.1,1.24c-4.77,4.67-9.54,8.07-14.3,10.2
			c-4.77,2.13-9.93,3.19-15.46,3.19c-7.86,0-14.66-1.85-20.39-5.56c-5.74-3.71-10.12-8.58-13.15-14.62
			c-3.03-6.04-4.54-12.56-4.54-19.57c0-8.1,1.87-15.51,5.61-22.24c3.74-6.73,8.86-12.05,15.37-15.96
			c6.51-3.91,13.75-5.87,21.75-5.87c7.73,0,13.73,1.99,17.98,5.97c4.25,3.98,6.38,9.89,6.38,17.71c0,3.98-0.77,5.97-2.32,5.97
			l-47.17,0.21c-0.13,1.24-0.19,3.09-0.19,5.56c0,12.08,2.61,21.66,7.83,28.73c5.22,7.07,12.66,10.61,22.33,10.61
			c3.61,0,6.64-0.44,9.09-1.34c2.45-0.89,5.73-2.5,9.86-4.84L985.81,826.33z M942.99,767.94c-3.03,3.91-5.06,9.3-6.09,16.17
			l30.93-0.62c-0.26-14.28-4.64-21.42-13.15-21.42C949.91,762.06,946.01,764.02,942.99,767.94z"/>
		<path fill="#505150" d="M1143.83,719.02c-3.03-3.98-7.38-5.97-13.05-5.97c-0.26,0-0.39-0.41-0.39-1.24c0-0.82,0.13-1.24,0.39-1.24
			l8.89,0.21c4.9,0.28,8.76,0.41,11.6,0.41c2.32,0,5.8-0.14,10.44-0.41l8.51-0.21c0.26,0,0.39,0.41,0.39,1.24
			c0,0.82-0.13,1.24-0.39,1.24c-5.03,0-8.93,1.99-11.7,5.97c-2.77,3.98-4.16,9.55-4.16,16.68v57.67c0,9.89-1.97,18.5-5.9,25.85
			c-3.93,7.35-9.47,13.01-16.62,16.99c-7.15,3.98-15.43,5.97-24.84,5.97c-9.41,0-17.78-1.96-25.13-5.87
			c-7.35-3.91-13.05-9.54-17.11-16.89c-4.06-7.34-6.09-15.96-6.09-25.85v-66.32c0-4.12-0.39-7.14-1.16-9.06
			c-0.77-1.92-2.16-3.26-4.16-4.02c-2-0.75-5.12-1.13-9.38-1.13c-0.39,0-0.58-0.41-0.58-1.24c0-0.82,0.19-1.24,0.58-1.24l10.05,0.21
			c5.67,0.28,10.25,0.41,13.72,0.41c3.87,0,8.63-0.14,14.31-0.41l9.67-0.21c0.39,0,0.58,0.41,0.58,1.24c0,0.82-0.19,1.24-0.58,1.24
			c-4.25,0-7.41,0.41-9.47,1.24c-2.06,0.82-3.45,2.23-4.16,4.22c-0.71,1.99-1.06,5.05-1.06,9.17v58.7c0,16.34,3.19,28.53,9.57,36.56
			c6.38,8.03,15.3,12.05,26.77,12.05c10.95,0,19.52-3.6,25.71-10.81s9.28-17.4,9.28-30.59V735.7
			C1148.38,728.56,1146.86,723,1143.83,719.02z"/>
		<path fill="#505150" d="M1265.91,838.07c0,0.82-0.19,1.24-0.58,1.24c-3.22,0-5.74-0.07-7.54-0.21l-11.21-0.21l-11.02,0.21
			c-1.93,0.14-4.51,0.21-7.73,0.21c-0.39,0-0.58-0.41-0.58-1.24c0-0.82,0.19-1.24,0.58-1.24c4.38,0,7.28-0.96,8.7-2.88
			c1.42-1.92,2.13-5.7,2.13-11.33v-30.89c0-7.69-1.32-13.35-3.96-16.99c-2.64-3.64-6.8-5.46-12.47-5.46
			c-3.35,0-6.77,0.82-10.25,2.47c-3.48,1.65-6.64,3.85-9.47,6.59v44.28c0,5.63,0.71,9.41,2.13,11.33c1.42,1.92,4.32,2.88,8.7,2.88
			c0.39,0,0.58,0.41,0.58,1.24c0,0.82-0.19,1.24-0.58,1.24c-3.22,0-5.74-0.07-7.54-0.21l-11.21-0.21l-11.21,0.21
			c-1.81,0.14-4.32,0.21-7.54,0.21c-0.39,0-0.58-0.41-0.58-1.24c0-0.82,0.19-1.24,0.58-1.24c4.38,0,7.28-0.96,8.7-2.88
			c1.42-1.92,2.13-5.7,2.13-11.33v-39.34c0-4.39-0.48-7.62-1.45-9.68c-0.97-2.06-2.55-3.09-4.74-3.09c-1.93,0-5.16,1.03-9.67,3.09
			h-0.19c-0.52,0-0.9-0.34-1.16-1.03c-0.26-0.69-0.19-1.1,0.19-1.24l25.32-13.18c0.77-0.27,1.22-0.41,1.35-0.41
			c1.29,0,2.61,1.54,3.96,4.63s2.09,7.11,2.22,12.05c9.02-11.4,18.81-17.09,29.38-17.09c7.09,0,12.63,2.3,16.62,6.9
			c3.99,4.6,5.99,10.81,5.99,18.64v39.75c0,5.63,0.71,9.41,2.13,11.33c1.42,1.92,4.32,2.88,8.7,2.88
			C1265.72,836.83,1265.91,837.24,1265.91,838.07z"/>
		<path fill="#505150" d="M1276.93,838.07c0-0.82,0.19-1.24,0.58-1.24c4.38,0,7.28-0.96,8.7-2.88c1.42-1.92,2.13-5.7,2.13-11.33
			v-37.49c0-4.67-0.45-8.06-1.35-10.2c-0.9-2.13-2.45-3.19-4.64-3.19c-1.93,0-4.45,0.82-7.54,2.47h-0.19c-0.52,0-0.9-0.34-1.16-1.03
			c-0.26-0.69-0.19-1.17,0.19-1.44l27.84-13.8l0.58-0.21c0.51,0,1.06,0.31,1.64,0.93c0.58,0.62,0.87,1.13,0.87,1.54v4.33
			c-0.26,5.77-0.39,12.56-0.39,20.39v37.69c0,5.63,0.74,9.41,2.22,11.33c1.48,1.92,4.41,2.88,8.8,2.88c0.39,0,0.58,0.41,0.58,1.24
			c0,0.82-0.19,1.24-0.58,1.24c-3.22,0-5.8-0.07-7.73-0.21l-11.21-0.21l-11.21,0.21c-1.81,0.14-4.32,0.21-7.54,0.21
			C1277.12,839.3,1276.93,838.89,1276.93,838.07z M1287.46,733.23c-1.87-1.92-2.8-4.67-2.8-8.24c0-3.43,0.93-6.08,2.8-7.93
			c1.87-1.85,4.48-2.78,7.83-2.78c3.22,0,5.73,0.93,7.54,2.78c1.8,1.85,2.71,4.5,2.71,7.93c0,3.57-0.87,6.32-2.61,8.24
			c-1.74,1.92-4.29,2.88-7.64,2.88C1291.94,736.11,1289.33,735.15,1287.46,733.23z"/>
		<path fill="#505150" d="M1407.02,761.04c0,0.82-0.13,1.24-0.39,1.24c-3.61,0-6.74,1.38-9.38,4.12c-2.64,2.75-5.19,7.14-7.64,13.18
			l-23.97,59.73c-0.26,0.69-0.9,1.03-1.93,1.03c-1.16,0-1.93-0.34-2.32-1.03l-28.61-62.41c-2.71-6.04-5.03-9.99-6.96-11.84
			s-4.32-2.78-7.15-2.78c-0.39,0-0.58-0.41-0.58-1.24s0.19-1.24,0.58-1.24c2.32,0,4.19,0.07,5.61,0.21l11.21,0.21l14.31-0.21
			c2.06-0.13,4.9-0.21,8.51-0.21c0.39,0,0.58,0.41,0.58,1.24s-0.19,1.24-0.58,1.24c-7.61,0-11.41,1.58-11.41,4.74
			c0,0.82,0.32,1.92,0.97,3.3l22.23,46.75l14.69-37.9c0.9-2.33,1.35-4.6,1.35-6.8c0-3.3-1.13-5.8-3.38-7.52
			c-2.26-1.72-5.58-2.58-9.96-2.58c-0.26,0-0.39-0.41-0.39-1.24s0.13-1.24,0.39-1.24c3.48,0,6.12,0.07,7.93,0.21l11.6,0.21
			l7.54-0.21c1.42-0.13,3.67-0.21,6.77-0.21C1406.89,759.8,1407.02,760.21,1407.02,761.04z"/>
		<path fill="#505150" d="M1478.35,826.33c0.26,0,0.55,0.28,0.87,0.82c0.32,0.55,0.35,0.96,0.1,1.24c-4.77,4.67-9.54,8.07-14.3,10.2
			c-4.77,2.13-9.93,3.19-15.46,3.19c-7.86,0-14.66-1.85-20.39-5.56c-5.74-3.71-10.12-8.58-13.15-14.62
			c-3.03-6.04-4.54-12.56-4.54-19.57c0-8.1,1.87-15.51,5.61-22.24c3.74-6.73,8.86-12.05,15.37-15.96
			c6.51-3.91,13.75-5.87,21.75-5.87c7.73,0,13.73,1.99,17.98,5.97c4.25,3.98,6.38,9.89,6.38,17.71c0,3.98-0.77,5.97-2.32,5.97
			l-47.17,0.21c-0.13,1.24-0.19,3.09-0.19,5.56c0,12.08,2.61,21.66,7.83,28.73c5.22,7.07,12.66,10.61,22.33,10.61
			c3.61,0,6.64-0.44,9.09-1.34c2.45-0.89,5.73-2.5,9.86-4.84L1478.35,826.33z M1435.53,767.94c-3.03,3.91-5.06,9.3-6.09,16.17
			l30.93-0.62c-0.26-14.28-4.64-21.42-13.15-21.42C1442.46,762.06,1438.56,764.02,1435.53,767.94z"/>
		<path fill="#505150" d="M1550.07,760.83c2.71,2.06,4.06,4.53,4.06,7.42c0,2.61-0.74,4.74-2.22,6.38
			c-1.48,1.65-3.51,2.47-6.09,2.47c-1.68,0-3.06-0.38-4.16-1.13c-1.1-0.75-2.22-1.82-3.38-3.19c-1.16-1.24-2.19-2.16-3.09-2.78
			c-0.9-0.62-2-0.93-3.29-0.93c-1.42,0-2.93,0.59-4.54,1.75c-1.61,1.17-4.09,3.6-7.44,7.31v44.49c0,3.85,0.51,6.76,1.55,8.75
			c1.03,1.99,2.77,3.4,5.22,4.22c2.45,0.82,6.06,1.24,10.83,1.24c0.51,0,0.77,0.41,0.77,1.24c0,0.82-0.26,1.24-0.77,1.24
			c-4.25,0-7.67-0.07-10.25-0.21l-15.27-0.21l-11.21,0.21c-1.81,0.14-4.32,0.21-7.54,0.21c-0.39,0-0.58-0.41-0.58-1.24
			c0-0.82,0.19-1.24,0.58-1.24c4.38,0,7.28-0.96,8.7-2.88c1.42-1.92,2.13-5.7,2.13-11.33v-39.34c0-4.39-0.48-7.62-1.45-9.68
			c-0.97-2.06-2.55-3.09-4.74-3.09c-1.93,0-5.16,1.03-9.67,3.09h-0.19c-0.52,0-0.9-0.34-1.16-1.03c-0.26-0.69-0.19-1.1,0.19-1.24
			l25.32-13.18c0.77-0.27,1.22-0.41,1.35-0.41c1.29,0,2.58,1.48,3.87,4.43c1.29,2.95,2.06,6.83,2.32,11.64
			c5.03-6.04,9.21-10.23,12.56-12.56c3.35-2.33,6.38-3.5,9.09-3.5C1544.53,757.74,1547.36,758.77,1550.07,760.83z"/>
		<path fill="#505150" d="M1583.41,781.22c2.77,2.88,6.8,5.91,12.08,9.06c4.64,2.75,8.22,5.01,10.73,6.8
			c2.51,1.79,4.7,4.19,6.57,7.21c1.87,3.02,2.8,6.66,2.8,10.92c0,4.67-1.1,9-3.29,12.98c-2.19,3.98-5.45,7.21-9.76,9.68
			c-4.32,2.47-9.44,3.71-15.37,3.71c-7.09,0-13.6-1.92-19.52-5.77c-0.77-0.82-1.16-1.65-1.16-2.47l-0.39-18.95
			c0-0.41,0.35-0.65,1.06-0.72c0.71-0.07,1.13,0.04,1.26,0.31c2.19,6.87,5.51,12.5,9.96,16.89c4.45,4.4,9.18,6.59,14.21,6.59
			c3.22,0,5.73-0.89,7.54-2.68c1.8-1.78,2.71-4.46,2.71-8.03c0-5.22-1.42-9.37-4.25-12.46c-2.84-3.09-6.96-6.14-12.37-9.17
			c-4.38-2.47-7.8-4.56-10.25-6.28c-2.45-1.71-4.54-4.05-6.28-7c-1.74-2.95-2.61-6.62-2.61-11.02c0-7.83,2.67-13.66,8.02-17.51
			c5.35-3.84,11.82-5.77,19.43-5.77c5.03,0,10.18,1.03,15.46,3.09c1.16,0.55,1.74,1.31,1.74,2.27c0,3.16-0.07,5.63-0.19,7.42
			l-0.19,9.89c0,0.41-0.39,0.62-1.16,0.62c-0.77,0-1.16-0.21-1.16-0.62c0-2.75-1.03-5.59-3.09-8.55c-2.06-2.95-4.71-5.39-7.93-7.31
			c-3.22-1.92-6.51-2.88-9.86-2.88c-5.93,0-8.89,3.02-8.89,9.06C1579.26,774.77,1580.64,778.34,1583.41,781.22z"/>
		<path fill="#505150" d="M1630.68,838.07c0-0.82,0.19-1.24,0.58-1.24c4.38,0,7.28-0.96,8.7-2.88c1.42-1.92,2.12-5.7,2.12-11.33
			v-37.49c0-4.67-0.45-8.06-1.35-10.2c-0.9-2.13-2.45-3.19-4.64-3.19c-1.93,0-4.45,0.82-7.54,2.47h-0.19c-0.52,0-0.9-0.34-1.16-1.03
			c-0.26-0.69-0.19-1.17,0.19-1.44l27.84-13.8l0.58-0.21c0.51,0,1.06,0.31,1.64,0.93c0.58,0.62,0.87,1.13,0.87,1.54v4.33
			c-0.26,5.77-0.39,12.56-0.39,20.39v37.69c0,5.63,0.74,9.41,2.22,11.33c1.48,1.92,4.41,2.88,8.8,2.88c0.39,0,0.58,0.41,0.58,1.24
			c0,0.82-0.19,1.24-0.58,1.24c-3.22,0-5.8-0.07-7.73-0.21l-11.21-0.21l-11.21,0.21c-1.81,0.14-4.32,0.21-7.54,0.21
			C1630.87,839.3,1630.68,838.89,1630.68,838.07z M1641.21,733.23c-1.87-1.92-2.8-4.67-2.8-8.24c0-3.43,0.93-6.08,2.8-7.93
			c1.87-1.85,4.48-2.78,7.83-2.78c3.22,0,5.73,0.93,7.54,2.78c1.8,1.85,2.71,4.5,2.71,7.93c0,3.57-0.87,6.32-2.61,8.24
			c-1.74,1.92-4.29,2.88-7.64,2.88C1645.69,736.11,1643.08,735.15,1641.21,733.23z"/>
		<path fill="#505150" d="M1736.03,826.12c0.39,0,0.74,0.28,1.06,0.82c0.32,0.55,0.29,0.96-0.1,1.24
			c-4.77,4.81-9.28,8.27-13.53,10.4s-8.77,3.19-13.53,3.19c-5.54,0-10.22-1.41-14.02-4.22c-3.8-2.81-5.7-7.52-5.7-14.11V776.9
			c0-4.53-0.68-7.55-2.03-9.06c-1.35-1.51-3.96-2.27-7.83-2.27c-0.13,0-0.29-0.17-0.48-0.51c-0.19-0.34-0.29-0.72-0.29-1.13
			s0.1-0.79,0.29-1.13c0.19-0.34,0.35-0.52,0.48-0.52c12.11-0.55,19.72-6.11,22.81-16.68c0.26-0.55,0.8-0.82,1.64-0.82
			c0.84,0,1.26,0.28,1.26,0.82v16.27c6.06-0.14,14.62-0.82,25.71-2.06c0.26,0,0.55,0.52,0.87,1.54c0.32,1.03,0.48,2.16,0.48,3.4
			c0,1.24-0.23,2.47-0.68,3.71c-0.45,1.24-0.94,1.79-1.45,1.65c-7.22-1.78-15.53-2.88-24.94-3.3v49.84c0,5.36,1.26,9.3,3.77,11.84
			c2.51,2.54,6.02,3.81,10.54,3.81c5.41,0,10.5-1.99,15.27-5.97L1736.03,826.12z"/>
		<path fill="#505150" d="M1824.37,761.04c0,0.82-0.13,1.24-0.39,1.24c-3.87,0-7.19,1.65-9.96,4.94c-2.77,3.3-5.32,8.31-7.64,15.04
			l-22.23,62.82c-4.64,13.18-9.08,23.55-13.34,31.1c-4.25,7.55-8.57,12.94-12.95,16.17c-4.38,3.23-9.21,4.84-14.5,4.84
			c-3.61,0-6.41-0.79-8.41-2.37c-2-1.58-3-3.95-3-7.11c0-2.75,0.81-4.84,2.42-6.28c1.61-1.44,3.58-2.16,5.9-2.16
			c1.55,0,2.87,0.24,3.96,0.72c1.09,0.48,2.22,1.13,3.38,1.96c1.29,0.82,2.42,1.44,3.38,1.85s2.16,0.62,3.58,0.62
			c2.96,0,5.7-1.27,8.22-3.81c2.51-2.54,5.15-6.77,7.93-12.67c2.77-5.91,6.09-14.28,9.96-25.13l-30.54-65.91
			c-2.84-5.9-5.06-9.82-6.67-11.74c-1.61-1.92-3.58-2.88-5.9-2.88c-0.39,0-0.58-0.41-0.58-1.24s0.19-1.24,0.58-1.24
			c3.35,0,5.93,0.07,7.73,0.21l7.54,0.21l13.15-0.21c1.93-0.13,4.57-0.21,7.93-0.21c0.39,0,0.58,0.41,0.58,1.24
			s-0.19,1.24-0.58,1.24c-3.48,0-6.03,0.31-7.64,0.93c-1.61,0.62-2.42,1.75-2.42,3.4c0,1.24,0.32,2.47,0.97,3.71l23.58,51.9
			l12.95-39.96c1.16-3.57,1.74-6.59,1.74-9.06c0-7.28-4.32-10.92-12.95-10.92c-0.26,0-0.39-0.41-0.39-1.24s0.13-1.24,0.39-1.24
			c3.48,0,6.12,0.07,7.93,0.21l11.6,0.21l7.54-0.21c1.42-0.13,3.67-0.21,6.77-0.21C1824.24,759.8,1824.37,760.21,1824.37,761.04z"/>
		<path fill="#505150" d="M1892.6,836.11c-5.93-3.91-10.5-9.2-13.72-15.86c-3.22-6.66-4.83-13.9-4.83-21.73
			c0-8.92,2.09-16.51,6.28-22.76c4.19-6.25,9.54-10.92,16.04-14.01c6.51-3.09,13.18-4.63,20.01-4.63c7.86,0,14.72,1.99,20.59,5.97
			c5.86,3.98,10.34,9.24,13.43,15.76c3.09,6.52,4.64,13.49,4.64,20.91c0,8.24-1.9,15.59-5.7,22.04c-3.8,6.46-8.93,11.43-15.37,14.93
			c-6.45,3.5-13.41,5.25-20.88,5.25C1905.36,841.98,1898.53,840.02,1892.6,836.11z M1931.94,829.83c3.03-5.36,4.54-13.18,4.54-23.48
			c0-9.2-1.19-17.23-3.58-24.1c-2.39-6.87-5.61-12.08-9.67-15.65c-4.06-3.57-8.47-5.36-13.24-5.36c-5.8,0-10.18,2.54-13.15,7.62
			c-2.97,5.08-4.45,12.56-4.45,22.45c0,8.93,1.13,16.92,3.38,24c2.25,7.07,5.41,12.6,9.47,16.58c4.06,3.98,8.6,5.97,13.63,5.97
			C1924.56,837.86,1928.91,835.18,1931.94,829.83z"/>
		<path fill="#505150" d="M2039.91,692.96c3.99,2.13,5.99,4.98,5.99,8.55c0,2.75-0.87,4.91-2.61,6.49
			c-1.74,1.58-3.77,2.37-6.09,2.37c-2.58,0-4.54-0.62-5.9-1.85c-1.35-1.24-2.61-3.16-3.77-5.77c-1.55-2.88-3.13-5.05-4.74-6.49
			c-1.61-1.44-3.9-2.16-6.86-2.16c-6.45,0-11.54,4.46-15.27,13.39c-3.74,8.93-5.61,22.73-5.61,41.4v12.77
			c6.7-0.14,14.18-0.75,22.42-1.85c0.39,0,0.71,0.48,0.97,1.44c0.26,0.96,0.39,2.13,0.39,3.5c0,1.24-0.19,2.47-0.58,3.71
			c-0.39,1.24-0.84,1.79-1.35,1.65c-7.86-1.92-15.15-2.95-21.84-3.09v55.61c0,4.26,0.42,7.35,1.26,9.27
			c0.84,1.92,2.48,3.23,4.93,3.91c2.45,0.69,6.31,1.03,11.6,1.03c0.51,0,0.77,0.41,0.77,1.24c0,0.82-0.26,1.24-0.77,1.24
			l-12.95-0.21c-2.84-0.13-7.15-0.21-12.95-0.21l-11.41,0.21c-1.93,0.14-4.71,0.21-8.31,0.21c-0.52,0-0.77-0.41-0.77-1.24
			c0-0.82,0.26-1.24,0.77-1.24c3.48,0,6.06-0.38,7.73-1.13c1.67-0.75,2.83-2.09,3.48-4.02c0.64-1.92,0.97-4.94,0.97-9.06v-46.34
			c0-4.53-0.84-7.41-2.51-8.65c-1.68-1.24-5.16-1.85-10.44-1.85c-0.39,0-0.58-0.62-0.58-1.85c0-1.1,0.19-1.65,0.58-1.65
			c4.77,0,8.02-0.65,9.76-1.96c1.74-1.3,2.67-3.67,2.8-7.11c0.64-22.38,4.57-38.55,11.79-48.5c7.22-9.95,18.04-14.93,32.48-14.93
			C2030.37,689.77,2035.91,690.84,2039.91,692.96z"/>
		<path fill="#505150" d="M2087.17,722.62c-5.09,5.15-8.99,12.94-11.7,23.38c0,0.28-0.36,0.41-1.06,0.41
			c-0.71,0-1.06-0.21-1.06-0.62c0.51-5.36,1.09-12.26,1.74-20.7c0.64-8.44,0.97-14.79,0.97-19.05c0-0.69,0.35-1.03,1.06-1.03
			c0.71,0,1.06,0.34,1.06,1.03c0,3.02,3.61,4.53,10.83,4.53c11.08,0.41,24.03,0.62,38.86,0.62c7.6,0,15.66-0.14,24.16-0.41
			l13.15-0.21c4.9,0,8.47-0.34,10.73-1.03c2.25-0.69,3.7-2.06,4.35-4.12c0.13-0.55,0.51-0.82,1.16-0.82c0.64,0,0.97,0.28,0.97,0.82
			c-0.39,4.26-0.77,10.71-1.16,19.36c-0.39,8.65-0.58,15.65-0.58,21.01c0,0.41-0.36,0.62-1.06,0.62c-0.71,0-1.13-0.21-1.26-0.62
			c-1.29-10.57-4.32-18.36-9.09-23.38c-4.77-5.01-11.21-7.52-19.33-7.52c-3.61,0-6.28,0.34-8.02,1.03c-1.74,0.69-2.9,1.89-3.48,3.6
			c-0.58,1.72-0.87,4.43-0.87,8.14v94.95c0,4.26,0.39,7.35,1.16,9.27c0.77,1.92,2.32,3.23,4.64,3.91c2.32,0.69,5.99,1.03,11.02,1.03
			c0.39,0,0.58,0.41,0.58,1.24c0,0.82-0.19,1.24-0.58,1.24c-4.51,0-8.06-0.07-10.63-0.21l-15.85-0.21l-15.08,0.21
			c-2.71,0.14-6.45,0.21-11.21,0.21c-0.26,0-0.39-0.41-0.39-1.24c0-0.82,0.13-1.24,0.39-1.24c5.03,0,8.73-0.34,11.12-1.03
			c2.38-0.69,3.99-2.02,4.83-4.02c0.84-1.99,1.26-5.05,1.26-9.17v-95.36c0-3.57-0.32-6.18-0.97-7.83c-0.65-1.65-1.81-2.81-3.48-3.5
			c-1.68-0.69-4.25-1.03-7.73-1.03C2098.73,714.9,2092.26,717.47,2087.17,722.62z"/>
		<path fill="#505150" d="M2246.94,826.33c0.26,0,0.55,0.28,0.87,0.82c0.32,0.55,0.35,0.96,0.1,1.24
			c-4.77,4.67-9.54,8.07-14.31,10.2c-4.77,2.13-9.92,3.19-15.46,3.19c-7.86,0-14.66-1.85-20.39-5.56
			c-5.74-3.71-10.12-8.58-13.15-14.62c-3.03-6.04-4.54-12.56-4.54-19.57c0-8.1,1.87-15.51,5.61-22.24
			c3.74-6.73,8.86-12.05,15.37-15.96c6.51-3.91,13.75-5.87,21.75-5.87c7.73,0,13.73,1.99,17.98,5.97c4.25,3.98,6.38,9.89,6.38,17.71
			c0,3.98-0.77,5.97-2.32,5.97l-47.17,0.21c-0.13,1.24-0.19,3.09-0.19,5.56c0,12.08,2.61,21.66,7.83,28.73
			c5.22,7.07,12.66,10.61,22.33,10.61c3.61,0,6.64-0.44,9.09-1.34c2.45-0.89,5.73-2.5,9.86-4.84L2246.94,826.33z M2204.12,767.94
			c-3.03,3.91-5.06,9.3-6.09,16.17l30.93-0.62c-0.26-14.28-4.64-21.42-13.15-21.42C2211.05,762.06,2207.15,764.02,2204.12,767.94z"
			/>
		<path fill="#505150" d="M2338.18,838.07c0,0.82-0.19,1.24-0.58,1.24l-6.77-0.21c-1.55-0.13-3.8-0.21-6.77-0.21l-13.34,0.21
			c-1.93,0.14-4.64,0.21-8.12,0.21c-0.39,0-0.58-0.41-0.58-1.24c0-0.82,0.19-1.24,0.58-1.24c3.35,0,5.03-0.96,5.03-2.88
			c0-1.1-0.71-2.81-2.13-5.15l-13.34-21.42l-8.31,12.98c-2.84,4.26-4.25,7.83-4.25,10.71c0,3.85,3.09,5.77,9.28,5.77
			c0.39,0,0.58,0.41,0.58,1.24c0,0.82-0.19,1.24-0.58,1.24c-3.48,0-6.06-0.07-7.73-0.21l-11.6-0.21l-7.73,0.21
			c-1.29,0.14-3.48,0.21-6.57,0.21c-0.39,0-0.58-0.41-0.58-1.24c0-0.82,0.19-1.24,0.58-1.24c3.74,0,7.76-1.58,12.08-4.74
			c4.32-3.16,8.41-7.55,12.28-13.18l10.25-15.04l-16.82-26.98c-2.84-4.67-5.67-8.27-8.51-10.81c-2.84-2.54-5.41-3.81-7.73-3.81
			c-0.26,0-0.39-0.41-0.39-1.24s0.13-1.24,0.39-1.24c2.71,0,4.7,0.07,5.99,0.21l5.99,0.21l12.95-0.21c2.06-0.13,4.9-0.21,8.5-0.21
			c0.26,0,0.39,0.41,0.39,1.24s-0.13,1.24-0.39,1.24c-3.35,0-5.03,0.96-5.03,2.88c0,1.37,0.71,3.09,2.13,5.15l11.99,19.36
			l6.77-10.92c2.96-4.67,4.45-8.24,4.45-10.71c0-3.84-3.16-5.77-9.47-5.77c-0.26,0-0.39-0.41-0.39-1.24s0.13-1.24,0.39-1.24
			c3.48,0,6.12,0.07,7.93,0.21l11.6,0.21l7.73-0.21c1.29-0.13,3.48-0.21,6.57-0.21c0.39,0,0.58,0.41,0.58,1.24s-0.19,1.24-0.58,1.24
			c-3.74,0-7.77,1.58-12.08,4.74c-4.32,3.16-8.41,7.55-12.28,13.18l-9.08,12.98l18.17,29.04c3.09,4.94,6.25,8.62,9.47,11.02
			c3.22,2.4,6.06,3.6,8.51,3.6C2337.99,836.83,2338.18,837.24,2338.18,838.07z"/>
		<path fill="#505150" d="M2419.76,828.18c0.51,0,0.84,0.31,0.97,0.93c0.13,0.62-0.07,1.07-0.58,1.34l-19.91,10.09
			c-0.52,0.27-1.1,0.41-1.74,0.41c-1.93,0-3.77-1.2-5.51-3.6c-1.74-2.4-2.87-5.59-3.38-9.58l-8.89,6.59
			c-3.09,2.34-5.9,3.98-8.41,4.94c-2.51,0.96-5.32,1.44-8.41,1.44c-5.29,0-9.31-1.34-12.08-4.02c-2.77-2.68-4.16-6.21-4.16-10.61
			c0-3.71,0.93-6.73,2.8-9.06c1.87-2.33,4.25-4.22,7.15-5.66c2.9-1.44,7.18-3.26,12.86-5.46l18.75-7.41v-12.36
			c0-8.51-0.81-14.73-2.42-18.64c-1.61-3.91-4.16-5.87-7.64-5.87c-4.25,0-7.32,1.68-9.18,5.05c-1.87,3.37-3,7.11-3.38,11.23
			c-0.77,7-4.06,10.5-9.86,10.5c-2.84,0-4.93-0.69-6.28-2.06c-1.35-1.37-2.03-3.09-2.03-5.15c0-3.84,2.16-7.58,6.48-11.22
			c4.32-3.64,9.54-6.59,15.66-8.86c6.12-2.27,11.5-3.4,16.14-3.4c5.54,0,9.96,1.85,13.24,5.56s4.93,9.27,4.93,16.68v37.07
			c0,4.26,0.64,7.49,1.93,9.68c1.29,2.2,3.16,3.3,5.61,3.3c1.93,0,4.25-0.62,6.96-1.85H2419.76z M2389.21,824.47v-2.06v-20.39
			l-11.6,5.15c-3.35,1.37-6.09,2.99-8.22,4.84c-2.13,1.85-3.19,4.5-3.19,7.93c0,3.3,1,5.94,3,7.93c2,1.99,4.41,2.99,7.25,2.99
			c2.32,0,4.77-0.82,7.35-2.47L2389.21,824.47z"/>
		<path fill="#505150" d="M2445.95,781.22c2.77,2.88,6.8,5.91,12.08,9.06c4.64,2.75,8.22,5.01,10.73,6.8
			c2.51,1.79,4.7,4.19,6.57,7.21c1.87,3.02,2.8,6.66,2.8,10.92c0,4.67-1.1,9-3.29,12.98c-2.19,3.98-5.45,7.21-9.76,9.68
			c-4.32,2.47-9.44,3.71-15.37,3.71c-7.09,0-13.6-1.92-19.52-5.77c-0.77-0.82-1.16-1.65-1.16-2.47l-0.39-18.95
			c0-0.41,0.35-0.65,1.06-0.72c0.71-0.07,1.13,0.04,1.26,0.31c2.19,6.87,5.51,12.5,9.96,16.89c4.45,4.4,9.18,6.59,14.21,6.59
			c3.22,0,5.73-0.89,7.54-2.68c1.8-1.78,2.71-4.46,2.71-8.03c0-5.22-1.42-9.37-4.25-12.46c-2.84-3.09-6.96-6.14-12.37-9.17
			c-4.38-2.47-7.8-4.56-10.25-6.28c-2.45-1.71-4.54-4.05-6.28-7c-1.74-2.95-2.61-6.62-2.61-11.02c0-7.83,2.67-13.66,8.02-17.51
			c5.35-3.84,11.82-5.77,19.43-5.77c5.03,0,10.18,1.03,15.46,3.09c1.16,0.55,1.74,1.31,1.74,2.27c0,3.16-0.07,5.63-0.19,7.42
			l-0.19,9.89c0,0.41-0.39,0.62-1.16,0.62s-1.16-0.21-1.16-0.62c0-2.75-1.03-5.59-3.09-8.55c-2.06-2.95-4.71-5.39-7.93-7.31
			c-3.22-1.92-6.51-2.88-9.86-2.88c-5.93,0-8.89,3.02-8.89,9.06C2441.79,774.77,2443.18,778.34,2445.95,781.22z"/>
		<path fill="#505150" d="M2611.32,828.18c0.51,0,0.84,0.31,0.97,0.93c0.13,0.62-0.07,1.07-0.58,1.34l-19.91,10.09
			c-0.52,0.27-1.1,0.41-1.74,0.41c-1.93,0-3.77-1.2-5.51-3.6c-1.74-2.4-2.87-5.59-3.38-9.58l-8.89,6.59
			c-3.09,2.34-5.9,3.98-8.41,4.94c-2.51,0.96-5.32,1.44-8.41,1.44c-5.29,0-9.31-1.34-12.08-4.02c-2.77-2.68-4.16-6.21-4.16-10.61
			c0-3.71,0.93-6.73,2.8-9.06c1.87-2.33,4.25-4.22,7.15-5.66c2.9-1.44,7.18-3.26,12.86-5.46l18.75-7.41v-12.36
			c0-8.51-0.81-14.73-2.42-18.64c-1.61-3.91-4.16-5.87-7.64-5.87c-4.25,0-7.32,1.68-9.18,5.05c-1.87,3.37-3,7.11-3.38,11.23
			c-0.77,7-4.06,10.5-9.86,10.5c-2.84,0-4.93-0.69-6.28-2.06c-1.35-1.37-2.03-3.09-2.03-5.15c0-3.84,2.16-7.58,6.48-11.22
			c4.32-3.64,9.54-6.59,15.66-8.86c6.12-2.27,11.5-3.4,16.14-3.4c5.54,0,9.96,1.85,13.24,5.56s4.93,9.27,4.93,16.68v37.07
			c0,4.26,0.64,7.49,1.93,9.68c1.29,2.2,3.16,3.3,5.61,3.3c1.93,0,4.25-0.62,6.96-1.85H2611.32z M2580.78,824.47v-2.06v-20.39
			l-11.6,5.15c-3.35,1.37-6.09,2.99-8.22,4.84c-2.13,1.85-3.19,4.5-3.19,7.93c0,3.3,1,5.94,3,7.93c2,1.99,4.41,2.99,7.25,2.99
			c2.32,0,4.77-0.82,7.35-2.47L2580.78,824.47z"/>
		<path fill="#505150" d="M2673.57,826.12c0.39,0,0.74,0.28,1.06,0.82c0.32,0.55,0.29,0.96-0.1,1.24
			c-4.77,4.81-9.28,8.27-13.53,10.4s-8.77,3.19-13.53,3.19c-5.54,0-10.22-1.41-14.02-4.22c-3.8-2.81-5.7-7.52-5.7-14.11V776.9
			c0-4.53-0.68-7.55-2.03-9.06c-1.35-1.51-3.96-2.27-7.83-2.27c-0.13,0-0.29-0.17-0.48-0.51c-0.19-0.34-0.29-0.72-0.29-1.13
			s0.1-0.79,0.29-1.13c0.19-0.34,0.35-0.52,0.48-0.52c12.11-0.55,19.72-6.11,22.81-16.68c0.26-0.55,0.8-0.82,1.64-0.82
			c0.84,0,1.26,0.28,1.26,0.82v16.27c6.06-0.14,14.62-0.82,25.71-2.06c0.26,0,0.55,0.52,0.87,1.54c0.32,1.03,0.48,2.16,0.48,3.4
			c0,1.24-0.23,2.47-0.68,3.71c-0.45,1.24-0.94,1.79-1.45,1.65c-7.22-1.78-15.53-2.88-24.94-3.3v49.84c0,5.36,1.26,9.3,3.77,11.84
			c2.51,2.54,6.02,3.81,10.54,3.81c5.41,0,10.5-1.99,15.27-5.97L2673.57,826.12z"/>
		<path fill="#505150" d="M2860.5,838.07c0,0.82-0.32,1.24-0.97,1.24c-2.45,0-6.38-0.13-11.79-0.41c-5.41-0.27-9.34-0.41-11.79-0.41
			c-3.22,0-7.03,0.14-11.41,0.41c-4.38,0.28-7.8,0.41-10.25,0.41c-0.52,0-0.77-0.41-0.77-1.24c0-0.82,0.26-1.24,0.77-1.24
			c3.74,0,6.48-0.44,8.22-1.34c1.74-0.89,2.61-2.37,2.61-4.43c0-2.06-1.1-5.56-3.29-10.5l-14.69-31.72h-46.78l-9.28,22.24
			c-1.68,4.12-2.51,7.83-2.51,11.12c0,4.81,1.61,8.45,4.83,10.92c3.22,2.47,7.73,3.71,13.53,3.71c0.64,0,0.97,0.41,0.97,1.24
			c0,0.82-0.32,1.24-0.97,1.24c-2.32,0-5.67-0.13-10.05-0.41c-4.9-0.27-9.15-0.41-12.76-0.41c-3.48,0-7.54,0.14-12.18,0.41
			c-4.13,0.28-7.54,0.41-10.25,0.41c-0.64,0-0.97-0.41-0.97-1.24c0-0.82,0.32-1.24,0.97-1.24c3.61,0,6.64-0.75,9.09-2.27
			c2.45-1.51,4.83-4.22,7.15-8.14c2.32-3.91,5.09-9.71,8.31-17.4l41.56-99.69c0.26-0.41,0.84-0.62,1.74-0.62
			c0.9,0,1.42,0.21,1.55,0.62l47.36,101.75c4.51,9.89,8.28,16.65,11.31,20.29c3.03,3.64,6.28,5.46,9.76,5.46
			C2860.17,836.83,2860.5,837.24,2860.5,838.07z M2762.49,783.69h42.33l-22.23-47.99L2762.49,783.69z"/>
		<path fill="#505150" d="M2955.22,826.33c0.39,0,0.71,0.34,0.97,1.03c0.26,0.69,0.19,1.17-0.19,1.44l-25.32,12.98l-0.77,0.21
			c-1.29,0-2.45-1.54-3.48-4.63c-1.03-3.09-1.61-7.24-1.74-12.46c-9.02,11.12-18.56,16.68-28.61,16.68c-6.96,0-12.37-2.3-16.24-6.9
			c-3.87-4.6-5.8-10.88-5.8-18.85v-30.69c0-9.34-2-14-5.99-14c-1.29,0-3.09,0.55-5.41,1.65h-0.19c-0.52,0-0.9-0.34-1.16-1.03
			c-0.26-0.69-0.19-1.17,0.19-1.44l24.55-12.15l0.77-0.21c0.51,0,1.09,0.28,1.74,0.82c0.64,0.55,0.97,1.03,0.97,1.44v46.75
			c0,7.69,1.32,13.42,3.96,17.2c2.64,3.78,6.67,5.66,12.08,5.66c3.22,0,6.54-0.82,9.96-2.47c3.41-1.65,6.48-3.91,9.18-6.8v-35.43
			c0-4.8-0.48-8.34-1.45-10.61c-0.97-2.27-2.48-3.4-4.54-3.4c-1.16,0-2.97,0.55-5.41,1.65h-0.19c-0.52,0-0.9-0.38-1.16-1.13
			c-0.26-0.75-0.13-1.2,0.39-1.34l24.36-12.15c0.26-0.13,0.58-0.21,0.97-0.21c0.51,0,1.09,0.28,1.74,0.82
			c0.64,0.55,0.97,1.03,0.97,1.44v55.82c0,4.81,0.45,8.17,1.35,10.09c0.9,1.92,2.38,2.88,4.45,2.88c1.55,0,4.45-0.82,8.7-2.47
			L2955.22,826.33z"/>
		<path fill="#505150" d="M2982.18,781.22c2.77,2.88,6.8,5.91,12.08,9.06c4.64,2.75,8.22,5.01,10.73,6.8
			c2.51,1.79,4.7,4.19,6.57,7.21c1.87,3.02,2.8,6.66,2.8,10.92c0,4.67-1.1,9-3.29,12.98c-2.19,3.98-5.45,7.21-9.76,9.68
			c-4.32,2.47-9.44,3.71-15.37,3.71c-7.09,0-13.6-1.92-19.52-5.77c-0.77-0.82-1.16-1.65-1.16-2.47l-0.39-18.95
			c0-0.41,0.35-0.65,1.06-0.72c0.71-0.07,1.13,0.04,1.26,0.31c2.19,6.87,5.51,12.5,9.96,16.89c4.45,4.4,9.18,6.59,14.21,6.59
			c3.22,0,5.73-0.89,7.54-2.68c1.8-1.78,2.71-4.46,2.71-8.03c0-5.22-1.42-9.37-4.25-12.46c-2.84-3.09-6.96-6.14-12.37-9.17
			c-4.38-2.47-7.8-4.56-10.25-6.28c-2.45-1.71-4.54-4.05-6.28-7c-1.74-2.95-2.61-6.62-2.61-11.02c0-7.83,2.67-13.66,8.02-17.51
			c5.35-3.84,11.82-5.77,19.43-5.77c5.03,0,10.18,1.03,15.46,3.09c1.16,0.55,1.74,1.31,1.74,2.27c0,3.16-0.07,5.63-0.19,7.42
			l-0.19,9.89c0,0.41-0.39,0.62-1.16,0.62s-1.16-0.21-1.16-0.62c0-2.75-1.03-5.59-3.09-8.55c-2.06-2.95-4.71-5.39-7.93-7.31
			c-3.22-1.92-6.51-2.88-9.86-2.88c-5.93,0-8.89,3.02-8.89,9.06C2978.03,774.77,2979.41,778.34,2982.18,781.22z"/>
		<path fill="#505150" d="M3083.38,826.12c0.39,0,0.74,0.28,1.06,0.82c0.32,0.55,0.29,0.96-0.1,1.24
			c-4.77,4.81-9.28,8.27-13.53,10.4s-8.77,3.19-13.53,3.19c-5.54,0-10.22-1.41-14.02-4.22c-3.8-2.81-5.7-7.52-5.7-14.11V776.9
			c0-4.53-0.68-7.55-2.03-9.06c-1.35-1.51-3.96-2.27-7.83-2.27c-0.13,0-0.29-0.17-0.48-0.51c-0.19-0.34-0.29-0.72-0.29-1.13
			s0.1-0.79,0.29-1.13c0.19-0.34,0.35-0.52,0.48-0.52c12.11-0.55,19.72-6.11,22.81-16.68c0.26-0.55,0.8-0.82,1.64-0.82
			c0.84,0,1.26,0.28,1.26,0.82v16.27c6.06-0.14,14.62-0.82,25.71-2.06c0.26,0,0.55,0.52,0.87,1.54c0.32,1.03,0.48,2.16,0.48,3.4
			c0,1.24-0.23,2.47-0.68,3.71c-0.45,1.24-0.94,1.79-1.45,1.65c-7.22-1.78-15.53-2.88-24.94-3.3v49.84c0,5.36,1.26,9.3,3.77,11.84
			c2.51,2.54,6.02,3.81,10.54,3.81c5.41,0,10.5-1.99,15.27-5.97L3083.38,826.12z"/>
		<path fill="#505150" d="M3094.59,838.07c0-0.82,0.19-1.24,0.58-1.24c4.38,0,7.28-0.96,8.7-2.88c1.42-1.92,2.13-5.7,2.13-11.33
			v-37.49c0-4.67-0.45-8.06-1.35-10.2c-0.9-2.13-2.45-3.19-4.64-3.19c-1.93,0-4.45,0.82-7.54,2.47h-0.19c-0.52,0-0.9-0.34-1.16-1.03
			c-0.26-0.69-0.19-1.17,0.19-1.44l27.84-13.8l0.58-0.21c0.51,0,1.06,0.31,1.64,0.93c0.58,0.62,0.87,1.13,0.87,1.54v4.33
			c-0.26,5.77-0.39,12.56-0.39,20.39v37.69c0,5.63,0.74,9.41,2.22,11.33c1.48,1.92,4.41,2.88,8.8,2.88c0.39,0,0.58,0.41,0.58,1.24
			c0,0.82-0.19,1.24-0.58,1.24c-3.22,0-5.8-0.07-7.73-0.21l-11.21-0.21l-11.21,0.21c-1.81,0.14-4.32,0.21-7.54,0.21
			C3094.78,839.3,3094.59,838.89,3094.59,838.07z M3105.12,733.23c-1.87-1.92-2.8-4.67-2.8-8.24c0-3.43,0.93-6.08,2.8-7.93
			c1.87-1.85,4.48-2.78,7.83-2.78c3.22,0,5.73,0.93,7.54,2.78c1.8,1.85,2.71,4.5,2.71,7.93c0,3.57-0.87,6.32-2.61,8.24
			c-1.74,1.92-4.29,2.88-7.64,2.88C3109.6,736.11,3106.99,735.15,3105.12,733.23z"/>
		<path fill="#505150" d="M3236.09,838.07c0,0.82-0.19,1.24-0.58,1.24c-3.22,0-5.74-0.07-7.54-0.21l-11.21-0.21l-11.02,0.21
			c-1.93,0.14-4.51,0.21-7.73,0.21c-0.39,0-0.58-0.41-0.58-1.24c0-0.82,0.19-1.24,0.58-1.24c4.38,0,7.28-0.96,8.7-2.88
			c1.42-1.92,2.13-5.7,2.13-11.33v-30.89c0-7.69-1.32-13.35-3.96-16.99c-2.64-3.64-6.8-5.46-12.47-5.46
			c-3.35,0-6.77,0.82-10.25,2.47c-3.48,1.65-6.64,3.85-9.47,6.59v44.28c0,5.63,0.71,9.41,2.13,11.33c1.42,1.92,4.32,2.88,8.7,2.88
			c0.39,0,0.58,0.41,0.58,1.24c0,0.82-0.19,1.24-0.58,1.24c-3.22,0-5.74-0.07-7.54-0.21l-11.21-0.21l-11.21,0.21
			c-1.81,0.14-4.32,0.21-7.54,0.21c-0.39,0-0.58-0.41-0.58-1.24c0-0.82,0.19-1.24,0.58-1.24c4.38,0,7.28-0.96,8.7-2.88
			c1.42-1.92,2.13-5.7,2.13-11.33v-39.34c0-4.39-0.48-7.62-1.45-9.68c-0.97-2.06-2.55-3.09-4.74-3.09c-1.93,0-5.16,1.03-9.67,3.09
			h-0.19c-0.52,0-0.9-0.34-1.16-1.03c-0.26-0.69-0.19-1.1,0.19-1.24l25.32-13.18c0.77-0.27,1.22-0.41,1.35-0.41
			c1.29,0,2.61,1.54,3.96,4.63c1.35,3.09,2.09,7.11,2.22,12.05c9.02-11.4,18.81-17.09,29.38-17.09c7.09,0,12.63,2.3,16.62,6.9
			c3.99,4.6,5.99,10.81,5.99,18.64v39.75c0,5.63,0.71,9.41,2.13,11.33c1.42,1.92,4.32,2.88,8.7,2.88
			C3235.9,836.83,3236.09,837.24,3236.09,838.07z"/>
	</g>
</g>
<g id="Group_2_00000151540814284603320850000013450416394546249393_">
	<g id="_x0D_computational_neuroscience">
		<g>
			<path fill="#505150" d="M718.57,466.72v-22.14c0-14.59,4-26.4,12.01-35.42c8-9.02,19.93-13.53,35.79-13.53
				c10,0,18.39,1.85,25.17,5.54c6.77,3.69,10.16,7.83,10.16,12.42c0,2.79-0.96,5.58-2.89,8.36c-1.93,2.79-4.2,4.18-6.81,4.18
				c-0.77,0-3.5-1.23-8.2-3.69c-4.7-2.46-9.89-3.69-15.58-3.69c-16.93,0-25.4,8.64-25.4,25.9v21.99c0,17.27,8.54,25.9,25.63,25.9
				c5.85,0,11.12-1.31,15.82-3.94c4.69-2.62,7.5-3.94,8.43-3.94c3.08,0,5.58,1.31,7.5,3.94c1.92,2.62,2.89,5.41,2.89,8.36
				c0,4.59-3.54,8.86-10.62,12.79c-7.08,3.94-15.7,5.9-25.86,5.9c-16.01,0-28.02-4.47-36.02-13.41
				C722.57,493.33,718.57,481.48,718.57,466.72z"/>
			<path fill="#505150" d="M812.77,466.72v-22.63c0-12.95,4.69-24.27,14.08-33.95c9.39-9.67,20.62-14.51,33.71-14.51
				c12.77,0,23.93,4.8,33.48,14.39c9.54,9.59,14.31,20.95,14.31,34.07v22.63c0,12.79-4.81,24.15-14.43,34.07
				c-9.62,9.92-20.74,14.88-33.36,14.88c-12.78,0-23.94-4.92-33.48-14.76C817.54,491.08,812.77,479.68,812.77,466.72z
				 M837.02,466.65c0,6.68,2.31,12.67,6.93,17.96c4.62,5.3,10.16,7.94,16.62,7.94c6.31,0,11.81-2.64,16.51-7.94
				c4.69-5.29,7.04-11.28,7.04-17.96v-22.48c0-6.52-2.35-12.38-7.04-17.59c-4.7-5.21-10.2-7.82-16.51-7.82
				c-6.46,0-12.01,2.61-16.62,7.82c-4.62,5.21-6.93,11.08-6.93,17.59V466.65z"/>
			<path fill="#505150" d="M927.29,505.1v-99.63c0-2.46,1.11-4.47,3.35-6.03c2.23-1.56,5.12-2.34,8.66-2.34
				c2.92,0,5.46,0.79,7.62,2.36c2.15,1.58,3.23,3.61,3.23,6.1v8.96c6.62-12.6,16.85-18.9,30.71-18.9c6.77,0,12.81,2.28,18.12,6.83
				c5.31,4.55,9.35,10.56,12.12,18.01c3.85-8.11,8.89-14.28,15.12-18.51c6.23-4.22,12.81-6.33,19.74-6.33
				c10.93,0,20.35,4.39,28.28,13.16c7.93,8.78,11.89,20.54,11.89,35.3v61.01c0,2.13-1.23,4.1-3.69,5.9
				c-2.46,1.81-5.31,2.71-8.54,2.71c-3.08,0-5.85-0.9-8.31-2.7c-2.46-1.8-3.69-3.76-3.69-5.89v-60.85c0-8.01-2.16-14.31-6.46-18.89
				c-4.31-4.58-9.31-6.87-15.01-6.87c-5.7,0-10.74,2.29-15.12,6.87c-4.39,4.58-6.58,10.71-6.58,18.4v61.59
				c0,2.78-1.19,4.87-3.58,6.26c-2.39,1.39-5.27,2.08-8.66,2.08c-3.08,0-5.85-0.69-8.31-2.08c-2.46-1.39-3.69-3.47-3.69-6.26v-61.34
				c0-7.36-2.12-13.41-6.35-18.16c-4.24-4.74-9.27-7.11-15.12-7.11c-5.85,0-10.89,2.29-15.12,6.87c-4.24,4.58-6.35,10.8-6.35,18.65
				v60.85c0,2.13-1.23,4.09-3.69,5.89c-2.46,1.8-5.31,2.7-8.54,2.7c-3.39,0-6.23-0.9-8.54-2.71
				C928.45,509.2,927.29,507.23,927.29,505.1z"/>
			<path fill="#505150" d="M1108.53,560.45V405.47c0-2.46,1.11-4.47,3.35-6.03c2.23-1.56,4.96-2.34,8.2-2.34s5.92,0.79,8.08,2.36
				c2.15,1.58,3.23,3.61,3.23,6.1v8.96c2.77-5.3,6.89-9.78,12.35-13.43c5.46-3.64,11.66-5.47,18.59-5.47
				c11.54,0,21.36,4.76,29.44,14.27c8.08,9.51,12.12,20.91,12.12,34.19v22.63c0,12.79-4.08,24.15-12.24,34.07
				c-8.16,9.92-17.63,14.88-28.4,14.88c-6.62,0-12.74-1.91-18.35-5.72c-5.62-3.81-9.66-8.37-12.12-13.68v64.14
				c0,2.3-1.23,4.31-3.69,6.04c-2.46,1.73-5.39,2.59-8.77,2.59c-3.39,0-6.2-0.86-8.43-2.58
				C1109.65,564.76,1108.53,562.75,1108.53,560.45z M1132.77,472.27c0,3.59,2.35,7.86,7.04,12.83c4.69,4.97,10.12,7.45,16.28,7.45
				c6.15,0,11.62-2.64,16.39-7.94c4.77-5.29,7.16-11.28,7.16-17.96v-22.48c0-6.52-2.39-12.38-7.16-17.59
				c-4.77-5.21-10.39-7.82-16.85-7.82c-6,0-11.31,2.32-15.93,6.96c-4.62,4.64-6.93,10.79-6.93,18.45V472.27z"/>
			<path fill="#505150" d="M1221.89,467.22v-61.5c0-2.29,1.23-4.3,3.69-6.03c2.46-1.72,5.31-2.58,8.54-2.58s6.04,0.86,8.43,2.58
				c2.38,1.72,3.58,3.72,3.58,6.01v61.34c0,6.55,2.35,12.43,7.04,17.67c4.69,5.24,10.19,7.85,16.51,7.85
				c6.46,0,12.01-2.58,16.62-7.73c4.62-5.15,6.93-11.08,6.93-17.79v-61.59c0-2.29,1.19-4.25,3.58-5.88
				c2.38-1.64,5.27-2.46,8.66-2.46c3.38,0,6.19,0.82,8.43,2.46c2.23,1.64,3.35,3.61,3.35,5.9v61.75c0,12.96-4.7,24.27-14.08,33.95
				c-9.39,9.68-20.55,14.51-33.48,14.51c-12.93,0-24.13-4.83-33.59-14.51C1226.63,491.49,1221.89,480.17,1221.89,467.22z"/>
			<path fill="#505150" d="M1339.18,475.33V352.09c0-2.29,1.23-4.26,3.69-5.9c2.46-1.64,5.23-2.46,8.31-2.46
				c3.08,0,5.89,0.82,8.43,2.46c2.54,1.64,3.81,3.61,3.81,5.9v45.02h28.17c2,0,3.61,0.95,4.85,2.83c1.23,1.89,1.85,4.14,1.85,6.77
				c0,2.62-0.62,4.88-1.85,6.76c-1.23,1.89-2.85,2.83-4.85,2.83h-28.17v59.04c0,5.9,1.19,10.09,3.58,12.55
				c2.38,2.46,6.58,3.69,12.58,3.69h8.08c3.23,0,5.77,1.07,7.62,3.2c1.85,2.13,2.77,4.76,2.77,7.87c0,3.12-0.92,5.74-2.77,7.87
				c-1.85,2.13-4.39,3.2-7.62,3.2h-8.08C1352.65,513.71,1339.18,500.92,1339.18,475.33z"/>
			<path fill="#505150" d="M1406.14,483.21c0-13.12,4.62-22.26,13.85-27.43s22.63-7.75,40.17-7.75h10.16v-4.53
				c0-7.39-1.89-13.77-5.66-19.14c-3.77-5.37-9.51-8.06-17.2-8.06c-6.62,0-12.43,1.35-17.43,4.06c-5,2.71-7.73,4.06-8.2,4.06
				c-2.62,0-4.73-1.35-6.35-4.06c-1.62-2.71-2.42-5.7-2.42-8.98c0-4.26,3.73-7.95,11.2-11.07c7.46-3.11,15.35-4.67,23.67-4.67
				c15.85,0,27.59,4.55,35.21,13.65c7.62,9.1,11.43,20.46,11.43,34.07v61.75c0,2.3-1.12,4.31-3.35,6.03
				c-2.23,1.72-5.04,2.58-8.43,2.58c-3.08,0-5.7-0.86-7.85-2.58c-2.16-1.72-3.23-3.73-3.23-6.03v-8.61
				c-10.31,12.79-21.93,19.19-34.86,19.19c-8.93,0-16.28-2.79-22.05-8.36C1409.02,501.74,1406.14,493.7,1406.14,483.21z
				 M1430.61,480.01c0,5.25,1.39,9.23,4.16,11.93c2.77,2.71,6.39,4.06,10.85,4.06c5.85,0,11.43-2.62,16.74-7.87
				c5.31-5.25,7.97-10.82,7.97-16.73v-9.1h-5.77c-6.93,0-12.58,0.33-16.97,0.98c-4.39,0.66-8.31,2.38-11.77,5.17
				C1432.34,471.24,1430.61,475.09,1430.61,480.01z"/>
			<path fill="#505150" d="M1516.73,475.33V352.09c0-2.29,1.23-4.26,3.69-5.9c2.46-1.64,5.23-2.46,8.31-2.46
				c3.08,0,5.89,0.82,8.43,2.46c2.54,1.64,3.81,3.61,3.81,5.9v45.02h28.17c2,0,3.61,0.95,4.85,2.83c1.23,1.89,1.85,4.14,1.85,6.77
				c0,2.62-0.62,4.88-1.85,6.76c-1.23,1.89-2.85,2.83-4.85,2.83h-28.17v59.04c0,5.9,1.19,10.09,3.58,12.55
				c2.38,2.46,6.58,3.69,12.58,3.69h8.08c3.23,0,5.77,1.07,7.62,3.2c1.85,2.13,2.77,4.76,2.77,7.87c0,3.12-0.92,5.74-2.77,7.87
				c-1.85,2.13-4.39,3.2-7.62,3.2h-8.08C1530.2,513.71,1516.73,500.92,1516.73,475.33z"/>
			<path fill="#505150" d="M1588.53,354.3c0-3.77,1.39-6.97,4.16-9.59c2.77-2.62,6.08-3.94,9.93-3.94c3.85,0,7.16,1.31,9.93,3.94
				c2.77,2.62,4.16,5.82,4.16,9.59c0,3.61-1.39,6.77-4.16,9.47s-6.08,4.06-9.93,4.06c-3.85,0-7.16-1.35-9.93-4.06
				S1588.53,357.91,1588.53,354.3z M1590.61,505.1v-99.63c0-2.46,1.11-4.47,3.35-6.03c2.23-1.56,5.12-2.34,8.66-2.34
				c3.54,0,6.46,0.78,8.77,2.34c2.31,1.56,3.46,3.57,3.46,6.03v99.63c0,2.13-1.19,4.1-3.58,5.9c-2.39,1.81-5.27,2.71-8.66,2.71
				c-3.39,0-6.23-0.9-8.54-2.71C1591.76,509.2,1590.61,507.23,1590.61,505.1z"/>
			<path fill="#505150" d="M1633.55,466.72v-22.63c0-12.95,4.69-24.27,14.08-33.95c9.39-9.67,20.62-14.51,33.71-14.51
				c12.77,0,23.93,4.8,33.48,14.39c9.54,9.59,14.32,20.95,14.32,34.07v22.63c0,12.79-4.81,24.15-14.43,34.07
				c-9.62,9.92-20.74,14.88-33.36,14.88c-12.78,0-23.94-4.92-33.48-14.76C1638.32,491.08,1633.55,479.68,1633.55,466.72z
				 M1657.8,466.65c0,6.68,2.31,12.67,6.93,17.96c4.62,5.3,10.16,7.94,16.62,7.94c6.31,0,11.81-2.64,16.51-7.94
				c4.69-5.29,7.04-11.28,7.04-17.96v-22.48c0-6.52-2.35-12.38-7.04-17.59c-4.7-5.21-10.2-7.82-16.51-7.82
				c-6.46,0-12.01,2.61-16.62,7.82c-4.62,5.21-6.93,11.08-6.93,17.59V466.65z"/>
			<path fill="#505150" d="M1748.07,505.1v-99.63c0-2.46,1.12-4.47,3.35-6.03c2.23-1.56,5.12-2.34,8.66-2.34
				c3.08,0,5.66,0.79,7.74,2.36c2.08,1.58,3.12,3.61,3.12,6.1v8.96c2.46-5.3,6.42-9.78,11.89-13.43c5.46-3.64,11.81-5.47,19.05-5.47
				c10.93,0,20.35,4.76,28.28,14.27c7.93,9.51,11.89,20.91,11.89,34.19v61.01c0,2.63-1.19,4.72-3.58,6.27
				c-2.39,1.56-5.27,2.34-8.66,2.34c-3.08,0-5.85-0.78-8.31-2.33c-2.46-1.55-3.69-3.64-3.69-6.26v-60.85
				c0-6.54-2.31-12.43-6.93-17.67c-4.62-5.24-10.08-7.85-16.39-7.85c-5.85,0-11.01,2.33-15.47,7c-4.47,4.66-6.7,10.84-6.7,18.52
				v60.85c0,2.13-1.23,4.09-3.69,5.89c-2.46,1.8-5.31,2.7-8.54,2.7c-3.39,0-6.23-0.9-8.54-2.71
				C1749.22,509.2,1748.07,507.23,1748.07,505.1z"/>
			<path fill="#505150" d="M1857.28,483.21c0-13.12,4.62-22.26,13.85-27.43s22.63-7.75,40.17-7.75h10.16v-4.53
				c0-7.39-1.89-13.77-5.66-19.14c-3.77-5.37-9.51-8.06-17.2-8.06c-6.62,0-12.43,1.35-17.43,4.06c-5,2.71-7.73,4.06-8.2,4.06
				c-2.62,0-4.73-1.35-6.35-4.06s-2.42-5.7-2.42-8.98c0-4.26,3.73-7.95,11.2-11.07c7.46-3.11,15.35-4.67,23.67-4.67
				c15.85,0,27.59,4.55,35.21,13.65c7.62,9.1,11.43,20.46,11.43,34.07v61.75c0,2.3-1.12,4.31-3.35,6.03
				c-2.23,1.72-5.04,2.58-8.43,2.58c-3.08,0-5.7-0.86-7.85-2.58c-2.16-1.72-3.23-3.73-3.23-6.03v-8.61
				c-10.31,12.79-21.93,19.19-34.86,19.19c-8.93,0-16.28-2.79-22.05-8.36C1860.16,501.74,1857.28,493.7,1857.28,483.21z
				 M1881.75,480.01c0,5.25,1.39,9.23,4.16,11.93c2.77,2.71,6.39,4.06,10.85,4.06c5.85,0,11.43-2.62,16.74-7.87
				c5.31-5.25,7.96-10.82,7.96-16.73v-9.1h-5.77c-6.93,0-12.58,0.33-16.97,0.98c-4.39,0.66-8.31,2.38-11.78,5.17
				C1883.48,471.24,1881.75,475.09,1881.75,480.01z"/>
			<path fill="#505150" d="M1970.17,505.1v-169c0-2.46,1.12-4.47,3.35-6.03c2.23-1.56,5.12-2.34,8.66-2.34
				c3.38,0,6.27,0.78,8.66,2.34c2.38,1.56,3.58,3.57,3.58,6.03v169c0,2.13-1.23,4.1-3.69,5.9c-2.46,1.81-5.31,2.71-8.54,2.71
				c-3.39,0-6.23-0.9-8.54-2.71C1971.33,509.2,1970.17,507.23,1970.17,505.1z"/>
			<path fill="#505150" d="M2063.45,505.1v-99.63c0-2.46,1.12-4.47,3.35-6.03c2.23-1.56,5.12-2.34,8.66-2.34
				c3.08,0,5.66,0.79,7.74,2.36c2.08,1.58,3.12,3.61,3.12,6.1v8.96c2.46-5.3,6.42-9.78,11.89-13.43c5.46-3.64,11.81-5.47,19.05-5.47
				c10.93,0,20.35,4.76,28.28,14.27c7.93,9.51,11.89,20.91,11.89,34.19v61.01c0,2.63-1.19,4.72-3.58,6.27
				c-2.39,1.56-5.27,2.34-8.66,2.34c-3.08,0-5.85-0.78-8.31-2.33c-2.46-1.55-3.69-3.64-3.69-6.26v-60.85
				c0-6.54-2.31-12.43-6.93-17.67c-4.62-5.24-10.08-7.85-16.39-7.85c-5.85,0-11.01,2.33-15.47,7c-4.47,4.66-6.7,10.84-6.7,18.52
				v60.85c0,2.13-1.23,4.09-3.69,5.89c-2.46,1.8-5.31,2.7-8.54,2.7c-3.39,0-6.23-0.9-8.54-2.71
				C2064.6,509.2,2063.45,507.23,2063.45,505.1z"/>
			<path fill="#505150" d="M2175.42,466.72v-23.37c0-12.95,4.69-24.15,14.08-33.58c9.39-9.43,20.7-14.15,33.94-14.15
				c12.62,0,23.43,4.27,32.44,12.8c9,8.53,13.51,19.3,13.51,32.3c0,5.02-0.54,9.07-1.62,12.16c-1.08,3.09-2.77,5.27-5.08,6.52
				s-4.47,2.05-6.46,2.38c-2,0.33-4.62,0.5-7.85,0.5h-48.72v5.7c0,8.26,2.77,14.83,8.31,19.71c5.54,4.87,12.77,7.31,21.7,7.31
				c6.31,0,12.27-1.57,17.89-4.71c5.62-3.14,9.04-4.71,10.27-4.71c2.62,0,4.85,1.32,6.7,3.95c1.85,2.63,2.77,5.19,2.77,7.65
				c0,4.05-3.69,8.14-11.08,12.28c-7.39,4.14-16.47,6.2-27.24,6.2c-15.7,0-28.55-4.51-38.56-13.53
				C2180.42,493.13,2175.42,481.32,2175.42,466.72z M2199.66,445.81h38.33c3.38,0,5.66-0.48,6.81-1.45s1.73-2.91,1.73-5.81
				c0-6.45-2.23-11.94-6.7-16.46c-4.47-4.52-10.01-6.78-16.62-6.78c-6.46,0-12.01,2.14-16.62,6.42c-4.62,4.28-6.93,9.72-6.93,16.34
				V445.81z"/>
			<path fill="#505150" d="M2285.78,467.22v-61.5c0-2.29,1.23-4.3,3.69-6.03c2.46-1.72,5.31-2.58,8.54-2.58s6.04,0.86,8.43,2.58
				c2.38,1.72,3.58,3.72,3.58,6.01v61.34c0,6.55,2.34,12.43,7.04,17.67c4.69,5.24,10.2,7.85,16.51,7.85
				c6.46,0,12.01-2.58,16.62-7.73c4.62-5.15,6.93-11.08,6.93-17.79v-61.59c0-2.29,1.19-4.25,3.58-5.88
				c2.38-1.64,5.27-2.46,8.66-2.46c3.38,0,6.19,0.82,8.43,2.46c2.23,1.64,3.35,3.61,3.35,5.9v61.75c0,12.96-4.7,24.27-14.08,33.95
				c-9.39,9.68-20.55,14.51-33.48,14.51c-12.93,0-24.13-4.83-33.59-14.51C2290.52,491.49,2285.78,480.17,2285.78,467.22z"/>
			<path fill="#505150" d="M2403.3,505.1v-99.63c0-2.46,1.12-4.47,3.35-6.03c2.23-1.56,5.04-2.34,8.43-2.34
				c3.08,0,5.69,0.79,7.85,2.36c2.15,1.58,3.23,3.61,3.23,6.1v10.95c2.62-5.8,6.58-10.73,11.89-14.79
				c5.31-4.06,11.12-6.09,17.43-6.09h7.39c2.46,0,4.62,1.12,6.46,3.36c1.85,2.24,2.77,4.93,2.77,8.08c0,3.15-0.92,5.88-2.77,8.21
				c-1.85,2.32-4,3.48-6.46,3.48h-7.39c-7.39,0-13.89,3.36-19.51,10.06c-5.62,6.71-8.43,15.38-8.43,26.01v50.3
				c0,2.13-1.23,4.09-3.69,5.89c-2.46,1.8-5.39,2.7-8.77,2.7c-3.39,0-6.2-0.9-8.43-2.71C2404.42,509.2,2403.3,507.23,2403.3,505.1z"
				/>
			<path fill="#505150" d="M2476.95,466.72v-22.63c0-12.95,4.69-24.27,14.08-33.95c9.39-9.67,20.62-14.51,33.71-14.51
				c12.77,0,23.93,4.8,33.48,14.39c9.54,9.59,14.32,20.95,14.32,34.07v22.63c0,12.79-4.81,24.15-14.43,34.07
				c-9.62,9.92-20.74,14.88-33.36,14.88c-12.78,0-23.94-4.92-33.48-14.76C2481.72,491.08,2476.95,479.68,2476.95,466.72z
				 M2501.19,466.65c0,6.68,2.31,12.67,6.93,17.96c4.62,5.3,10.16,7.94,16.62,7.94c6.31,0,11.81-2.64,16.51-7.94
				c4.69-5.29,7.04-11.28,7.04-17.96v-22.48c0-6.52-2.35-12.38-7.04-17.59c-4.7-5.21-10.2-7.82-16.51-7.82
				c-6.46,0-12.01,2.61-16.62,7.82c-4.62,5.21-6.93,11.08-6.93,17.59V466.65z"/>
			<path fill="#505150" d="M2584.54,496c0-2.46,0.81-5,2.44-7.63c1.63-2.62,3.61-3.94,5.93-3.94c1.4,0,3.34,0.96,5.82,2.89
				c2.48,1.93,5.82,3.86,10,5.78c4.19,1.93,9.23,2.89,15.13,2.89c13.19,0,19.78-4.46,19.78-13.37c0-4.79-1.93-8.54-5.77-11.26
				c-3.85-2.72-8.51-4.87-13.97-6.43c-5.47-1.57-10.89-3.34-16.28-5.32c-5.39-1.98-10.01-5.36-13.85-10.15
				c-3.85-4.79-5.77-10.97-5.77-18.57c0-9.63,3.23-17.92,9.7-24.86c6.46-6.94,16.39-10.41,29.78-10.41c8.77,0,16.74,1.44,23.9,4.31
				c7.16,2.87,10.74,6.27,10.74,10.21c0,2.3-0.89,4.96-2.66,8c-1.77,3.04-3.96,4.55-6.58,4.55c-0.92,0-4.08-1.23-9.47-3.69
				c-5.39-2.46-10.54-3.69-15.47-3.69c-6.16,0-10.82,1.49-13.97,4.45c-3.16,2.97-4.73,6.27-4.73,9.9c0,3.96,1.92,7.1,5.77,9.41
				c3.85,2.31,8.54,4.21,14.08,5.69c5.54,1.48,11,3.3,16.37,5.44c5.38,2.15,9.95,5.86,13.74,11.14c3.79,5.28,5.68,12.05,5.68,20.29
				c0,10.61-3.54,18.94-10.62,24.98c-7.08,6.04-17.09,9.06-30.02,9.06c-10.93,0-20.28-2.05-28.05-6.15
				C2588.43,505.43,2584.54,500.92,2584.54,496z"/>
			<path fill="#505150" d="M2678.74,466.72v-22.14c0-14.59,4-26.4,12.01-35.42c8-9.02,19.93-13.53,35.79-13.53
				c10,0,18.39,1.85,25.17,5.54c6.77,3.69,10.16,7.83,10.16,12.42c0,2.79-0.96,5.58-2.89,8.36c-1.93,2.79-4.2,4.18-6.81,4.18
				c-0.77,0-3.5-1.23-8.2-3.69c-4.7-2.46-9.89-3.69-15.58-3.69c-16.93,0-25.4,8.64-25.4,25.9v21.99c0,17.27,8.54,25.9,25.63,25.9
				c5.85,0,11.12-1.31,15.82-3.94c4.69-2.62,7.5-3.94,8.43-3.94c3.08,0,5.58,1.31,7.5,3.94c1.92,2.62,2.89,5.41,2.89,8.36
				c0,4.59-3.54,8.86-10.62,12.79c-7.08,3.94-15.7,5.9-25.86,5.9c-16.01,0-28.02-4.47-36.02-13.41
				C2682.74,493.33,2678.74,481.48,2678.74,466.72z"/>
			<path fill="#505150" d="M2776.4,354.3c0-3.77,1.39-6.97,4.16-9.59c2.77-2.62,6.08-3.94,9.93-3.94c3.85,0,7.16,1.31,9.93,3.94
				c2.77,2.62,4.16,5.82,4.16,9.59c0,3.61-1.38,6.77-4.16,9.47c-2.77,2.71-6.08,4.06-9.93,4.06c-3.85,0-7.16-1.35-9.93-4.06
				S2776.4,357.91,2776.4,354.3z M2778.48,505.1v-99.63c0-2.46,1.12-4.47,3.35-6.03c2.23-1.56,5.12-2.34,8.66-2.34
				c3.54,0,6.46,0.78,8.77,2.34c2.31,1.56,3.46,3.57,3.46,6.03v99.63c0,2.13-1.19,4.1-3.58,5.9c-2.39,1.81-5.27,2.71-8.66,2.71
				c-3.39,0-6.23-0.9-8.54-2.71C2779.63,509.2,2778.48,507.23,2778.48,505.1z"/>
			<path fill="#505150" d="M2821.66,466.72v-23.37c0-12.95,4.69-24.15,14.08-33.58c9.39-9.43,20.7-14.15,33.94-14.15
				c12.62,0,23.43,4.27,32.44,12.8c9,8.53,13.51,19.3,13.51,32.3c0,5.02-0.54,9.07-1.62,12.16c-1.08,3.09-2.77,5.27-5.08,6.52
				s-4.47,2.05-6.46,2.38c-2,0.33-4.62,0.5-7.85,0.5h-48.72v5.7c0,8.26,2.77,14.83,8.31,19.71c5.54,4.87,12.77,7.31,21.7,7.31
				c6.31,0,12.27-1.57,17.89-4.71c5.62-3.14,9.04-4.71,10.27-4.71c2.62,0,4.85,1.32,6.7,3.95c1.85,2.63,2.77,5.19,2.77,7.65
				c0,4.05-3.69,8.14-11.08,12.28c-7.39,4.14-16.47,6.2-27.24,6.2c-15.7,0-28.55-4.51-38.56-13.53
				C2826.66,493.13,2821.66,481.32,2821.66,466.72z M2845.9,445.81h38.33c3.38,0,5.66-0.48,6.81-1.45s1.73-2.91,1.73-5.81
				c0-6.45-2.23-11.94-6.7-16.46c-4.47-4.52-10.01-6.78-16.62-6.78c-6.46,0-12.01,2.14-16.62,6.42c-4.62,4.28-6.93,9.72-6.93,16.34
				V445.81z"/>
			<path fill="#505150" d="M2932.94,505.1v-99.63c0-2.46,1.12-4.47,3.35-6.03c2.23-1.56,5.12-2.34,8.66-2.34
				c3.08,0,5.66,0.79,7.74,2.36c2.08,1.58,3.12,3.61,3.12,6.1v8.96c2.46-5.3,6.42-9.78,11.89-13.43c5.46-3.64,11.81-5.47,19.05-5.47
				c10.93,0,20.35,4.76,28.28,14.27c7.93,9.51,11.89,20.91,11.89,34.19v61.01c0,2.63-1.19,4.72-3.58,6.27
				c-2.39,1.56-5.27,2.34-8.66,2.34c-3.08,0-5.85-0.78-8.31-2.33c-2.46-1.55-3.69-3.64-3.69-6.26v-60.85
				c0-6.54-2.31-12.43-6.93-17.67c-4.62-5.24-10.08-7.85-16.39-7.85c-5.85,0-11.01,2.33-15.47,7c-4.47,4.66-6.7,10.84-6.7,18.52
				v60.85c0,2.13-1.23,4.09-3.69,5.89c-2.46,1.8-5.31,2.7-8.54,2.7c-3.39,0-6.23-0.9-8.54-2.71
				C2934.09,509.2,2932.94,507.23,2932.94,505.1z"/>
			<path fill="#505150" d="M3045.38,466.72v-22.14c0-14.59,4-26.4,12.01-35.42c8-9.02,19.93-13.53,35.79-13.53
				c10,0,18.39,1.85,25.17,5.54c6.77,3.69,10.16,7.83,10.16,12.42c0,2.79-0.96,5.58-2.89,8.36c-1.93,2.79-4.2,4.18-6.81,4.18
				c-0.77,0-3.5-1.23-8.2-3.69c-4.7-2.46-9.89-3.69-15.58-3.69c-16.93,0-25.4,8.64-25.4,25.9v21.99c0,17.27,8.54,25.9,25.63,25.9
				c5.85,0,11.12-1.31,15.82-3.94c4.69-2.62,7.5-3.94,8.43-3.94c3.08,0,5.58,1.31,7.5,3.94c1.92,2.62,2.89,5.41,2.89,8.36
				c0,4.59-3.54,8.86-10.62,12.79c-7.08,3.94-15.7,5.9-25.86,5.9c-16.01,0-28.02-4.47-36.02-13.41
				C3049.38,493.33,3045.38,481.48,3045.38,466.72z"/>
			<path fill="#505150" d="M3139.81,466.72v-23.37c0-12.95,4.69-24.15,14.08-33.58c9.39-9.43,20.7-14.15,33.94-14.15
				c12.62,0,23.43,4.27,32.44,12.8c9,8.53,13.51,19.3,13.51,32.3c0,5.02-0.54,9.07-1.62,12.16c-1.08,3.09-2.77,5.27-5.08,6.52
				s-4.47,2.05-6.46,2.38c-2,0.33-4.62,0.5-7.85,0.5h-48.72v5.7c0,8.26,2.77,14.83,8.31,19.71c5.54,4.87,12.77,7.31,21.7,7.31
				c6.31,0,12.27-1.57,17.89-4.71c5.62-3.14,9.04-4.71,10.27-4.71c2.62,0,4.85,1.32,6.7,3.95c1.85,2.63,2.77,5.19,2.77,7.65
				c0,4.05-3.69,8.14-11.08,12.28c-7.39,4.14-16.47,6.2-27.24,6.2c-15.7,0-28.55-4.51-38.56-13.53
				C3144.81,493.13,3139.81,481.32,3139.81,466.72z M3164.05,445.81h38.33c3.38,0,5.66-0.48,6.81-1.45s1.73-2.91,1.73-5.81
				c0-6.45-2.23-11.94-6.7-16.46c-4.47-4.52-10.01-6.78-16.62-6.78c-6.46,0-12.01,2.14-16.62,6.42c-4.62,4.28-6.93,9.72-6.93,16.34
				V445.81z"/>
		</g>
	</g>
	<g id="center_for_theoretical_and">
		<g>
			<path fill="#505150" d="M718.57,209.38v-22.14c0-14.59,4-26.4,12.01-35.42c8-9.02,19.93-13.53,35.79-13.53
				c10,0,18.39,1.85,25.17,5.54c6.77,3.69,10.16,7.83,10.16,12.42c0,2.79-0.96,5.58-2.89,8.36c-1.93,2.79-4.2,4.18-6.81,4.18
				c-0.77,0-3.5-1.23-8.2-3.69c-4.7-2.46-9.89-3.69-15.58-3.69c-16.93,0-25.4,8.64-25.4,25.9v21.99c0,17.27,8.54,25.9,25.63,25.9
				c5.85,0,11.12-1.31,15.82-3.94c4.69-2.62,7.5-3.94,8.43-3.94c3.08,0,5.58,1.31,7.5,3.94c1.92,2.62,2.89,5.41,2.89,8.36
				c0,4.59-3.54,8.86-10.62,12.79c-7.08,3.94-15.7,5.9-25.86,5.9c-16.01,0-28.02-4.47-36.02-13.41
				C722.57,235.99,718.57,224.14,718.57,209.38z"/>
			<path fill="#505150" d="M823.39,209.38v-23.37c0-12.95,4.69-24.15,14.08-33.58c9.39-9.43,20.7-14.15,33.94-14.15
				c12.62,0,23.43,4.27,32.44,12.8s13.51,19.3,13.51,32.3c0,5.02-0.54,9.07-1.62,12.16c-1.08,3.09-2.77,5.27-5.08,6.52
				c-2.31,1.25-4.47,2.05-6.46,2.38c-2,0.33-4.62,0.5-7.85,0.5h-48.72v5.7c0,8.26,2.77,14.83,8.31,19.71
				c5.54,4.87,12.77,7.31,21.7,7.31c6.31,0,12.27-1.57,17.89-4.71c5.62-3.14,9.04-4.71,10.27-4.71c2.62,0,4.85,1.32,6.7,3.95
				c1.85,2.63,2.77,5.19,2.77,7.65c0,4.05-3.69,8.15-11.08,12.28c-7.39,4.14-16.47,6.2-27.24,6.2c-15.7,0-28.55-4.51-38.56-13.53
				C828.39,235.79,823.39,223.98,823.39,209.38z M847.64,188.47h38.33c3.38,0,5.66-0.48,6.81-1.45c1.15-0.97,1.73-2.91,1.73-5.81
				c0-6.45-2.23-11.94-6.7-16.46c-4.47-4.52-10.01-6.78-16.62-6.78c-6.46,0-12.01,2.14-16.62,6.42c-4.62,4.28-6.93,9.72-6.93,16.34
				V188.47z"/>
			<path fill="#505150" d="M945.07,247.76v-99.63c0-2.46,1.11-4.47,3.35-6.03c2.23-1.56,5.12-2.34,8.66-2.34
				c3.08,0,5.66,0.79,7.73,2.36c2.08,1.58,3.12,3.61,3.12,6.1v8.96c2.46-5.3,6.43-9.78,11.89-13.43c5.46-3.64,11.81-5.47,19.05-5.47
				c10.93,0,20.35,4.76,28.28,14.27c7.93,9.51,11.89,20.91,11.89,34.19v61.01c0,2.62-1.19,4.72-3.58,6.27
				c-2.39,1.56-5.27,2.34-8.66,2.34c-3.08,0-5.85-0.78-8.31-2.33c-2.46-1.55-3.69-3.64-3.69-6.26v-60.85
				c0-6.54-2.31-12.43-6.93-17.67c-4.62-5.24-10.08-7.85-16.39-7.85c-5.85,0-11.01,2.33-15.47,7c-4.47,4.66-6.7,10.84-6.7,18.52
				v60.85c0,2.13-1.23,4.09-3.69,5.89c-2.46,1.8-5.31,2.7-8.54,2.7c-3.39,0-6.23-0.9-8.54-2.71
				C946.22,251.86,945.07,249.89,945.07,247.76z"/>
			<path fill="#505150" d="M1071.36,217.99V94.75c0-2.29,1.23-4.26,3.69-5.9c2.46-1.64,5.23-2.46,8.31-2.46
				c3.08,0,5.89,0.82,8.43,2.46c2.54,1.64,3.81,3.61,3.81,5.9v45.02h28.17c2,0,3.61,0.95,4.85,2.83c1.23,1.89,1.85,4.14,1.85,6.77
				c0,2.62-0.62,4.88-1.85,6.76c-1.23,1.89-2.85,2.83-4.85,2.83h-28.17v59.04c0,5.9,1.19,10.09,3.58,12.55
				c2.38,2.46,6.58,3.69,12.58,3.69h8.08c3.23,0,5.77,1.07,7.62,3.2c1.85,2.13,2.77,4.76,2.77,7.87c0,3.12-0.92,5.74-2.77,7.87
				c-1.85,2.13-4.39,3.2-7.62,3.2h-8.08C1084.83,256.37,1071.36,243.58,1071.36,217.99z"/>
			<path fill="#505150" d="M1149.86,209.38v-23.37c0-12.95,4.69-24.15,14.08-33.58c9.39-9.43,20.7-14.15,33.94-14.15
				c12.62,0,23.43,4.27,32.44,12.8s13.51,19.3,13.51,32.3c0,5.02-0.54,9.07-1.62,12.16c-1.08,3.09-2.77,5.27-5.08,6.52
				c-2.31,1.25-4.47,2.05-6.46,2.38c-2,0.33-4.62,0.5-7.85,0.5h-48.72v5.7c0,8.26,2.77,14.83,8.31,19.71
				c5.54,4.87,12.77,7.31,21.7,7.31c6.31,0,12.27-1.57,17.89-4.71c5.62-3.14,9.04-4.71,10.27-4.71c2.62,0,4.85,1.32,6.7,3.95
				c1.85,2.63,2.77,5.19,2.77,7.65c0,4.05-3.69,8.15-11.08,12.28c-7.39,4.14-16.47,6.2-27.24,6.2c-15.7,0-28.55-4.51-38.56-13.53
				C1154.86,235.79,1149.86,223.98,1149.86,209.38z M1174.1,188.47h38.33c3.38,0,5.66-0.48,6.81-1.45c1.15-0.97,1.73-2.91,1.73-5.81
				c0-6.45-2.23-11.94-6.7-16.46c-4.47-4.52-10.01-6.78-16.62-6.78c-6.46,0-12.01,2.14-16.62,6.42c-4.62,4.28-6.93,9.72-6.93,16.34
				V188.47z"/>
			<path fill="#505150" d="M1271.54,247.76v-99.63c0-2.46,1.11-4.47,3.35-6.03c2.23-1.56,5.04-2.34,8.43-2.34
				c3.08,0,5.69,0.79,7.85,2.36c2.15,1.58,3.23,3.61,3.23,6.1v10.95c2.62-5.8,6.58-10.73,11.89-14.79
				c5.31-4.06,11.12-6.09,17.43-6.09h7.39c2.46,0,4.62,1.12,6.46,3.36c1.85,2.24,2.77,4.93,2.77,8.08c0,3.15-0.92,5.88-2.77,8.21
				s-4,3.48-6.46,3.48h-7.39c-7.39,0-13.89,3.36-19.51,10.06c-5.62,6.71-8.43,15.38-8.43,26.01v50.3c0,2.13-1.23,4.09-3.69,5.89
				c-2.46,1.8-5.39,2.7-8.77,2.7c-3.39,0-6.2-0.9-8.43-2.71C1272.65,251.86,1271.54,249.89,1271.54,247.76z"/>
			<path fill="#505150" d="M1417.22,248.01V117.38c0-13.12,4-24.23,12.01-33.33c8-9.1,17.62-13.65,28.86-13.65h10.62
				c2.92,0,5.23,1.11,6.93,3.32c1.69,2.21,2.54,4.8,2.54,7.75c0,2.95-0.85,5.54-2.54,7.75c-1.7,2.21-4,3.32-6.93,3.32h-6
				c-6.16,0-11.24,2.13-15.24,6.4c-4,4.27-6,9.59-6,15.99v24.85h30.02c2,0,3.61,0.95,4.85,2.83c1.23,1.89,1.85,4.14,1.85,6.77
				c0,2.62-0.62,4.88-1.85,6.76c-1.23,1.89-2.85,2.83-4.85,2.83h-30.02v89.05c0,2.46-1.23,4.47-3.69,6.03
				c-2.46,1.56-5.39,2.34-8.77,2.34c-3.39,0-6.2-0.78-8.43-2.34C1418.33,252.48,1417.22,250.47,1417.22,248.01z"/>
			<path fill="#505150" d="M1493.41,209.38v-22.63c0-12.95,4.69-24.27,14.08-33.95c9.39-9.67,20.62-14.51,33.71-14.51
				c12.77,0,23.93,4.8,33.48,14.39c9.54,9.59,14.31,20.95,14.31,34.07v22.63c0,12.79-4.81,24.15-14.43,34.07
				c-9.62,9.92-20.74,14.88-33.36,14.88c-12.78,0-23.94-4.92-33.48-14.76C1498.18,233.74,1493.41,222.34,1493.41,209.38z
				 M1517.65,209.31c0,6.68,2.31,12.67,6.93,17.96c4.62,5.3,10.16,7.94,16.62,7.94c6.31,0,11.81-2.64,16.51-7.94
				c4.69-5.29,7.04-11.28,7.04-17.96v-22.48c0-6.52-2.35-12.38-7.04-17.59c-4.7-5.21-10.2-7.82-16.51-7.82
				c-6.46,0-12.01,2.61-16.62,7.82c-4.62,5.21-6.93,11.08-6.93,17.59V209.31z"/>
			<path fill="#505150" d="M1618.32,247.76v-99.63c0-2.46,1.11-4.47,3.35-6.03c2.23-1.56,5.04-2.34,8.43-2.34
				c3.08,0,5.69,0.79,7.85,2.36c2.15,1.58,3.23,3.61,3.23,6.1v10.95c2.62-5.8,6.58-10.73,11.89-14.79
				c5.31-4.06,11.12-6.09,17.43-6.09h7.39c2.46,0,4.62,1.12,6.46,3.36c1.85,2.24,2.77,4.93,2.77,8.08c0,3.15-0.92,5.88-2.77,8.21
				c-1.85,2.32-4,3.48-6.46,3.48h-7.39c-7.39,0-13.89,3.36-19.51,10.06c-5.62,6.71-8.43,15.38-8.43,26.01v50.3
				c0,2.13-1.23,4.09-3.69,5.89c-2.46,1.8-5.39,2.7-8.77,2.7c-3.39,0-6.2-0.9-8.43-2.71
				C1619.43,251.86,1618.32,249.89,1618.32,247.76z"/>
			<path fill="#505150" d="M1763.54,217.99V94.75c0-2.29,1.23-4.26,3.69-5.9c2.46-1.64,5.23-2.46,8.31-2.46
				c3.08,0,5.89,0.82,8.43,2.46c2.54,1.64,3.81,3.61,3.81,5.9v45.02h28.17c2,0,3.62,0.95,4.85,2.83c1.23,1.89,1.85,4.14,1.85,6.77
				c0,2.62-0.62,4.88-1.85,6.76c-1.23,1.89-2.85,2.83-4.85,2.83h-28.17v59.04c0,5.9,1.19,10.09,3.58,12.55
				c2.38,2.46,6.58,3.69,12.58,3.69h8.08c3.23,0,5.77,1.07,7.62,3.2c1.85,2.13,2.77,4.76,2.77,7.87c0,3.12-0.92,5.74-2.77,7.87
				c-1.85,2.13-4.39,3.2-7.62,3.2h-8.08C1777,256.37,1763.54,243.58,1763.54,217.99z"/>
			<path fill="#505150" d="M1848.04,247.77V78.99c0-2.46,1.11-4.46,3.35-6.02c2.23-1.55,5.12-2.33,8.66-2.33
				c3.38,0,6.27,0.78,8.66,2.34c2.38,1.56,3.58,3.56,3.58,6.02v78.19c2.46-5.3,6.27-9.78,11.43-13.43
				c5.16-3.64,11.2-5.47,18.12-5.47c10.93,0,20.35,4.76,28.28,14.27c7.93,9.51,11.89,20.91,11.89,34.19v61.01
				c0,2.62-1.23,4.72-3.69,6.27c-2.46,1.56-5.31,2.34-8.54,2.34c-3.08,0-5.85-0.78-8.31-2.33c-2.46-1.55-3.69-3.64-3.69-6.26v-60.85
				c0-6.54-2.31-12.43-6.93-17.67c-4.62-5.24-10.08-7.85-16.39-7.85c-5.85,0-11.01,2.33-15.47,7c-4.47,4.66-6.7,10.84-6.7,18.52
				v60.85c0,2.13-1.23,4.09-3.69,5.89c-2.46,1.8-5.31,2.7-8.54,2.7c-3.39,0-6.23-0.9-8.54-2.7
				C1849.19,251.87,1848.04,249.9,1848.04,247.77z"/>
			<path fill="#505150" d="M1970.41,209.38v-23.37c0-12.95,4.69-24.15,14.08-33.58c9.39-9.43,20.7-14.15,33.94-14.15
				c12.62,0,23.43,4.27,32.44,12.8c9,8.53,13.51,19.3,13.51,32.3c0,5.02-0.54,9.07-1.62,12.16c-1.08,3.09-2.77,5.27-5.08,6.52
				s-4.47,2.05-6.46,2.38c-2,0.33-4.62,0.5-7.85,0.5h-48.72v5.7c0,8.26,2.77,14.83,8.31,19.71c5.54,4.87,12.77,7.31,21.7,7.31
				c6.31,0,12.27-1.57,17.89-4.71c5.62-3.14,9.04-4.71,10.27-4.71c2.62,0,4.85,1.32,6.7,3.95c1.85,2.63,2.77,5.19,2.77,7.65
				c0,4.05-3.69,8.15-11.08,12.28c-7.39,4.14-16.47,6.2-27.24,6.2c-15.7,0-28.55-4.51-38.56-13.53
				C1975.41,235.79,1970.41,223.98,1970.41,209.38z M1994.65,188.47h38.33c3.38,0,5.66-0.48,6.81-1.45
				c1.15-0.97,1.73-2.91,1.73-5.81c0-6.45-2.23-11.94-6.7-16.46c-4.47-4.52-10.01-6.78-16.62-6.78c-6.46,0-12.01,2.14-16.62,6.42
				c-4.62,4.28-6.93,9.72-6.93,16.34V188.47z"/>
			<path fill="#505150" d="M2087.69,209.38v-22.63c0-12.95,4.69-24.27,14.08-33.95c9.39-9.67,20.62-14.51,33.71-14.51
				c12.77,0,23.93,4.8,33.48,14.39c9.54,9.59,14.32,20.95,14.32,34.07v22.63c0,12.79-4.81,24.15-14.43,34.07
				c-9.62,9.92-20.74,14.88-33.36,14.88c-12.78,0-23.94-4.92-33.48-14.76C2092.46,233.74,2087.69,222.34,2087.69,209.38z
				 M2111.94,209.31c0,6.68,2.31,12.67,6.93,17.96c4.62,5.3,10.16,7.94,16.62,7.94c6.31,0,11.81-2.64,16.51-7.94
				c4.69-5.29,7.04-11.28,7.04-17.96v-22.48c0-6.52-2.35-12.38-7.04-17.59c-4.7-5.21-10.2-7.82-16.51-7.82
				c-6.46,0-12.01,2.61-16.62,7.82c-4.62,5.21-6.93,11.08-6.93,17.59V209.31z"/>
			<path fill="#505150" d="M2212.6,247.76v-99.63c0-2.46,1.12-4.47,3.35-6.03c2.23-1.56,5.04-2.34,8.43-2.34
				c3.08,0,5.69,0.79,7.85,2.36c2.15,1.58,3.23,3.61,3.23,6.1v10.95c2.62-5.8,6.58-10.73,11.89-14.79
				c5.31-4.06,11.12-6.09,17.43-6.09h7.39c2.46,0,4.62,1.12,6.46,3.36c1.85,2.24,2.77,4.93,2.77,8.08c0,3.15-0.92,5.88-2.77,8.21
				c-1.85,2.32-4,3.48-6.46,3.48h-7.39c-7.39,0-13.89,3.36-19.51,10.06c-5.62,6.71-8.43,15.38-8.43,26.01v50.3
				c0,2.13-1.23,4.09-3.69,5.89c-2.46,1.8-5.39,2.7-8.77,2.7c-3.39,0-6.2-0.9-8.43-2.71C2213.72,251.86,2212.6,249.89,2212.6,247.76
				z"/>
			<path fill="#505150" d="M2296.87,209.38v-23.37c0-12.95,4.69-24.15,14.08-33.58c9.39-9.43,20.7-14.15,33.94-14.15
				c12.62,0,23.43,4.27,32.44,12.8c9,8.53,13.51,19.3,13.51,32.3c0,5.02-0.54,9.07-1.62,12.16c-1.08,3.09-2.77,5.27-5.08,6.52
				s-4.47,2.05-6.46,2.38c-2,0.33-4.62,0.5-7.85,0.5h-48.72v5.7c0,8.26,2.77,14.83,8.31,19.71c5.54,4.87,12.77,7.31,21.7,7.31
				c6.31,0,12.27-1.57,17.89-4.71c5.62-3.14,9.04-4.71,10.27-4.71c2.62,0,4.85,1.32,6.7,3.95c1.85,2.63,2.77,5.19,2.77,7.65
				c0,4.05-3.69,8.15-11.08,12.28c-7.39,4.14-16.47,6.2-27.24,6.2c-15.7,0-28.55-4.51-38.56-13.53
				C2301.87,235.79,2296.87,223.98,2296.87,209.38z M2321.11,188.47h38.33c3.38,0,5.66-0.48,6.81-1.45
				c1.15-0.97,1.73-2.91,1.73-5.81c0-6.45-2.23-11.94-6.7-16.46c-4.47-4.52-10.01-6.78-16.62-6.78c-6.46,0-12.01,2.14-16.62,6.42
				c-4.62,4.28-6.93,9.72-6.93,16.34V188.47z"/>
			<path fill="#505150" d="M2418.32,217.99V94.75c0-2.29,1.23-4.26,3.69-5.9c2.46-1.64,5.23-2.46,8.31-2.46
				c3.08,0,5.89,0.82,8.43,2.46c2.54,1.64,3.81,3.61,3.81,5.9v45.02h28.17c2,0,3.62,0.95,4.85,2.83c1.23,1.89,1.85,4.14,1.85,6.77
				c0,2.62-0.62,4.88-1.85,6.76c-1.23,1.89-2.85,2.83-4.85,2.83h-28.17v59.04c0,5.9,1.19,10.09,3.58,12.55
				c2.38,2.46,6.58,3.69,12.58,3.69h8.08c3.23,0,5.77,1.07,7.62,3.2c1.85,2.13,2.77,4.76,2.77,7.87c0,3.12-0.92,5.74-2.77,7.87
				c-1.85,2.13-4.39,3.2-7.62,3.2h-8.08C2431.78,256.37,2418.32,243.58,2418.32,217.99z"/>
			<path fill="#505150" d="M2500.51,96.96c0-3.77,1.39-6.97,4.16-9.59c2.77-2.62,6.08-3.94,9.93-3.94c3.85,0,7.16,1.31,9.93,3.94
				c2.77,2.62,4.16,5.82,4.16,9.59c0,3.61-1.38,6.77-4.16,9.47c-2.77,2.71-6.08,4.06-9.93,4.06c-3.85,0-7.16-1.35-9.93-4.06
				S2500.51,100.57,2500.51,96.96z M2502.59,247.76v-99.63c0-2.46,1.12-4.47,3.35-6.03c2.23-1.56,5.12-2.34,8.66-2.34
				c3.54,0,6.46,0.78,8.77,2.34c2.31,1.56,3.46,3.57,3.46,6.03v99.63c0,2.13-1.19,4.1-3.58,5.9c-2.39,1.81-5.27,2.71-8.66,2.71
				c-3.39,0-6.23-0.9-8.54-2.71C2503.74,251.86,2502.59,249.89,2502.59,247.76z"/>
			<path fill="#505150" d="M2556.61,209.38v-22.14c0-14.59,4-26.4,12.01-35.42c8-9.02,19.93-13.53,35.79-13.53
				c10,0,18.39,1.85,25.17,5.54c6.77,3.69,10.16,7.83,10.16,12.42c0,2.79-0.96,5.58-2.89,8.36c-1.93,2.79-4.2,4.18-6.81,4.18
				c-0.77,0-3.5-1.23-8.2-3.69c-4.7-2.46-9.89-3.69-15.58-3.69c-16.93,0-25.4,8.64-25.4,25.9v21.99c0,17.27,8.54,25.9,25.63,25.9
				c5.85,0,11.12-1.31,15.82-3.94c4.69-2.62,7.5-3.94,8.43-3.94c3.08,0,5.58,1.31,7.5,3.94c1.92,2.62,2.89,5.41,2.89,8.36
				c0,4.59-3.54,8.86-10.62,12.79c-7.08,3.94-15.7,5.9-25.86,5.9c-16.01,0-28.02-4.47-36.02-13.41
				C2560.61,235.99,2556.61,224.14,2556.61,209.38z"/>
			<path fill="#505150" d="M2659.82,225.87c0-13.12,4.62-22.26,13.85-27.43s22.63-7.75,40.17-7.75H2724v-4.53
				c0-7.39-1.89-13.77-5.66-19.14c-3.77-5.37-9.51-8.06-17.2-8.06c-6.62,0-12.43,1.35-17.43,4.06c-5,2.71-7.73,4.06-8.2,4.06
				c-2.62,0-4.73-1.35-6.35-4.06s-2.42-5.7-2.42-8.98c0-4.26,3.73-7.95,11.2-11.07c7.46-3.11,15.35-4.67,23.67-4.67
				c15.85,0,27.59,4.55,35.21,13.65c7.62,9.1,11.43,20.46,11.43,34.07v61.75c0,2.3-1.12,4.3-3.35,6.03
				c-2.23,1.72-5.04,2.58-8.43,2.58c-3.08,0-5.7-0.86-7.85-2.58c-2.16-1.72-3.23-3.73-3.23-6.03v-8.61
				c-10.31,12.79-21.93,19.19-34.86,19.19c-8.93,0-16.28-2.79-22.05-8.36C2662.7,244.4,2659.82,236.36,2659.82,225.87z
				 M2684.29,222.67c0,5.25,1.39,9.23,4.16,11.93s6.39,4.06,10.85,4.06c5.85,0,11.43-2.62,16.74-7.87
				c5.31-5.25,7.96-10.82,7.96-16.73v-9.1h-5.77c-6.93,0-12.58,0.33-16.97,0.98c-4.39,0.66-8.31,2.38-11.78,5.17
				C2686.02,213.9,2684.29,217.75,2684.29,222.67z"/>
			<path fill="#505150" d="M2783.1,247.76v-169c0-2.46,1.12-4.47,3.35-6.03c2.23-1.56,5.12-2.34,8.66-2.34
				c3.38,0,6.27,0.78,8.66,2.34c2.38,1.56,3.58,3.57,3.58,6.03v169c0,2.13-1.23,4.1-3.69,5.9c-2.46,1.81-5.31,2.71-8.54,2.71
				c-3.39,0-6.23-0.9-8.54-2.71C2784.26,251.86,2783.1,249.89,2783.1,247.76z"/>
			<path fill="#505150" d="M2890.23,225.87c0-13.12,4.62-22.26,13.85-27.43s22.63-7.75,40.17-7.75h10.16v-4.53
				c0-7.39-1.89-13.77-5.66-19.14c-3.77-5.37-9.51-8.06-17.2-8.06c-6.62,0-12.43,1.35-17.43,4.06c-5,2.71-7.73,4.06-8.2,4.06
				c-2.62,0-4.73-1.35-6.35-4.06s-2.42-5.7-2.42-8.98c0-4.26,3.73-7.95,11.2-11.07c7.46-3.11,15.35-4.67,23.67-4.67
				c15.85,0,27.59,4.55,35.21,13.65c7.62,9.1,11.43,20.46,11.43,34.07v61.75c0,2.3-1.12,4.3-3.35,6.03
				c-2.23,1.72-5.04,2.58-8.43,2.58c-3.08,0-5.7-0.86-7.85-2.58c-2.16-1.72-3.23-3.73-3.23-6.03v-8.61
				c-10.31,12.79-21.93,19.19-34.86,19.19c-8.93,0-16.28-2.79-22.05-8.36C2893.12,244.4,2890.23,236.36,2890.23,225.87z
				 M2914.7,222.67c0,5.25,1.39,9.23,4.16,11.93s6.39,4.06,10.85,4.06c5.85,0,11.43-2.62,16.74-7.87
				c5.31-5.25,7.96-10.82,7.96-16.73v-9.1h-5.77c-6.93,0-12.58,0.33-16.97,0.98c-4.39,0.66-8.31,2.38-11.78,5.17
				C2916.44,213.9,2914.7,217.75,2914.7,222.67z"/>
			<path fill="#505150" d="M3011.44,247.76v-99.63c0-2.46,1.12-4.47,3.35-6.03c2.23-1.56,5.12-2.34,8.66-2.34
				c3.08,0,5.66,0.79,7.74,2.36c2.08,1.58,3.12,3.61,3.12,6.1v8.96c2.46-5.3,6.42-9.78,11.89-13.43c5.46-3.64,11.81-5.47,19.05-5.47
				c10.93,0,20.35,4.76,28.28,14.27c7.93,9.51,11.89,20.91,11.89,34.19v61.01c0,2.62-1.19,4.72-3.58,6.27
				c-2.39,1.56-5.27,2.34-8.66,2.34c-3.08,0-5.85-0.78-8.31-2.33c-2.46-1.55-3.69-3.64-3.69-6.26v-60.85
				c0-6.54-2.31-12.43-6.93-17.67c-4.62-5.24-10.08-7.85-16.39-7.85c-5.85,0-11.01,2.33-15.47,7c-4.47,4.66-6.7,10.84-6.7,18.52
				v60.85c0,2.13-1.23,4.09-3.69,5.89c-2.46,1.8-5.31,2.7-8.54,2.7c-3.39,0-6.23-0.9-8.54-2.71
				C3012.59,251.86,3011.44,249.89,3011.44,247.76z"/>
			<path fill="#505150" d="M3133.81,209.38v-22.63c0-13.28,4.04-24.68,12.12-34.19c8.08-9.51,17.81-14.27,29.21-14.27
				c6.77,0,12.77,1.83,18.01,5.47c5.23,3.65,9.23,8.12,12.01,13.43V79c0-2.46,1.15-4.47,3.46-6.02s5.23-2.34,8.77-2.34
				c3.54,0,6.42,0.78,8.66,2.33c2.23,1.56,3.35,3.56,3.35,6.02v168.78c0,2.13-1.15,4.1-3.46,5.9c-2.31,1.8-5.16,2.7-8.54,2.7
				c-2.93,0-5.5-0.91-7.73-2.74c-2.23-1.83-3.35-3.82-3.35-5.98v-8.71c-2.46,5.3-6.66,9.86-12.58,13.68
				c-5.93,3.81-12.35,5.72-19.28,5.72c-10.78,0-20.24-4.96-28.4-14.88C3137.88,233.53,3133.81,222.18,3133.81,209.38z
				 M3158.05,209.31c0,6.68,2.31,12.67,6.93,17.96c4.62,5.3,10.08,7.94,16.39,7.94c6,0,11.46-2.48,16.39-7.45
				c4.92-4.97,7.39-9.24,7.39-12.83v-28.1c0-7.5-2.39-13.6-7.16-18.33c-4.77-4.72-10.24-7.09-16.39-7.09
				c-6.31,0-11.81,2.61-16.51,7.82c-4.7,5.21-7.04,11.08-7.04,17.59V209.31z"/>
		</g>
	</g>
</g>
<g id="ctcn">
	<g>
		<path fill="#F27347" d="M58.6,785.29v-27.54c0-18.16,4.98-32.84,14.94-44.07c9.95-11.22,24.79-16.83,44.52-16.83
			c12.44,0,22.88,2.29,31.31,6.88c8.42,4.59,12.64,9.75,12.64,15.45c0,3.47-1.2,6.94-3.59,10.4c-2.4,3.47-5.22,5.2-8.47,5.2
			c-0.96,0-4.36-1.53-10.2-4.59c-5.84-3.06-12.3-4.59-19.39-4.59c-21.06,0-31.59,10.74-31.59,32.22v27.36
			c0,21.48,10.63,32.22,31.88,32.22c7.27,0,13.83-1.63,19.67-4.9c5.84-3.26,9.33-4.9,10.48-4.9c3.83,0,6.94,1.63,9.33,4.9
			c2.39,3.27,3.59,6.73,3.59,10.41c0,5.71-4.41,11.02-13.21,15.91c-8.81,4.9-19.53,7.34-32.17,7.34c-19.92,0-34.85-5.56-44.8-16.68
			C63.58,818.4,58.6,803.66,58.6,785.29z"/>
		<path fill="#F27347" d="M195.31,796.01V642.69c0-2.85,1.53-5.3,4.6-7.34c3.06-2.04,6.51-3.06,10.34-3.06
			c3.83,0,7.32,1.02,10.48,3.06c3.16,2.04,4.74,4.49,4.74,7.34v56h35.04c2.49,0,4.5,1.18,6.03,3.52c1.53,2.35,2.3,5.15,2.3,8.42
			c0,3.27-0.77,6.07-2.3,8.42c-1.54,2.35-3.55,3.52-6.03,3.52h-35.04v73.44c0,7.34,1.48,12.55,4.45,15.61
			c2.97,3.06,8.19,4.59,15.65,4.59h10.05c4.02,0,7.18,1.33,9.48,3.98c2.3,2.65,3.45,5.92,3.45,9.79c0,3.88-1.15,7.14-3.45,9.79
			c-2.3,2.65-5.46,3.98-9.48,3.98h-10.05C212.07,843.74,195.31,827.83,195.31,796.01z"/>
		<path fill="#B87AB4" d="M293.54,785.29v-27.54c0-18.16,4.98-32.84,14.94-44.07c9.95-11.22,24.79-16.83,44.52-16.83
			c12.44,0,22.88,2.29,31.31,6.88c8.42,4.59,12.64,9.75,12.64,15.45c0,3.47-1.2,6.94-3.59,10.4c-2.4,3.47-5.22,5.2-8.47,5.2
			c-0.96,0-4.36-1.53-10.2-4.59c-5.84-3.06-12.3-4.59-19.39-4.59c-21.06,0-31.59,10.74-31.59,32.22v27.36
			c0,21.48,10.63,32.22,31.88,32.22c7.27,0,13.83-1.63,19.67-4.9c5.84-3.26,9.33-4.9,10.48-4.9c3.83,0,6.94,1.63,9.33,4.9
			c2.39,3.27,3.59,6.73,3.59,10.41c0,5.71-4.41,11.02-13.21,15.91c-8.81,4.9-19.53,7.34-32.17,7.34c-19.92,0-34.85-5.56-44.8-16.68
			C298.52,818.4,293.54,803.66,293.54,785.29z"/>
		<path fill="#B87AB4" d="M430.54,833.03V709.1c0-3.06,1.39-5.56,4.16-7.5c2.77-1.94,6.36-2.91,10.77-2.91
			c3.83,0,7.04,0.98,9.62,2.94c2.58,1.96,3.88,4.49,3.88,7.58v11.15c3.06-6.6,7.99-12.16,14.79-16.7c6.79-4.53,14.69-6.8,23.69-6.8
			c13.59,0,25.32,5.92,35.18,17.75c9.86,11.83,14.79,26.01,14.79,42.54v75.89c0,3.27-1.49,5.87-4.45,7.8
			c-2.97,1.94-6.56,2.91-10.77,2.91c-3.83,0-7.28-0.97-10.34-2.9c-3.06-1.93-4.6-4.53-4.6-7.78v-75.7c0-8.14-2.87-15.46-8.62-21.98
			c-5.74-6.51-12.54-9.77-20.39-9.77c-7.28,0-13.69,2.9-19.24,8.7c-5.56,5.8-8.33,13.48-8.33,23.04v75.7c0,2.65-1.54,5.09-4.6,7.33
			c-3.06,2.24-6.61,3.36-10.63,3.36c-4.21,0-7.75-1.12-10.63-3.37C431.97,838.14,430.54,835.69,430.54,833.03z"/>
	</g>
</g>
<g id="Vector_Smart_Object_xA0_Image_00000103962010989395105820000013095649372781155474_">
	<g>
		<path fill="#F27348" d="M93.39,477.51c2.01-14.12,7.28-27.17,15.09-38.37c-23.54-7.26-40.77-27.93-43.25-52.82
			c-6.52-1.25-12.74-4.38-17.76-9.42c-2.69-2.69-2.69-7.04,0-9.72c2.69-2.69,7.04-2.69,9.72,0c8.06,8.06,21.11,8.06,29.17,0
			c2.69-2.69,7.04-2.69,9.72,0c2.69,2.69,2.69,7.04,0,9.72c-4.82,4.84-10.74,7.89-16.96,9.23c2.67,20.45,18.61,37.54,38.99,41.34
			c14.85-15.07,35.03-24.79,57.42-26.36c3.04-15.87,17-27.89,33.74-27.89c3.79,0,6.88,3.09,6.88,6.88c0,3.79-3.09,6.88-6.88,6.88
			c-11.36,0-20.62,9.27-20.62,20.62c0,11.36,9.27,20.62,20.62,20.62c18.96,0,34.38,15.41,34.38,34.38
			c0,18.96-15.41,34.38-34.38,34.38c-11.36,0-20.62,9.27-20.62,20.63c0,3.79-3.09,6.88-6.88,6.88c-3.79,0-6.88-3.09-6.88-6.88
			c0-18.96,15.41-34.38,34.38-34.38c11.36,0,20.62-9.27,20.62-20.62c0-11.36-9.27-20.62-20.62-20.62
			c-16.47,0-30.25-11.64-33.59-27.13c-38.85,3.12-69.53,35.61-69.53,75.25c0,41.71,33.92,75.63,75.62,75.63s75.62-33.92,75.62-75.63
			v-110c0-26.53-21.59-48.12-48.12-48.12c-3.79,0-6.88-3.09-6.88-6.88c0-3.79,3.09-6.88,6.88-6.88c19.43,0,36.78,9.02,48.12,23.09
			V201.34c0-16.9-12.26-30.92-28.34-33.78c-3.42,15.37-17.14,26.9-33.53,26.9c-11.36,0-20.62,9.27-20.62,20.62
			s9.27,20.62,20.62,20.62c11.36,0,20.62-9.27,20.62-20.62c0-3.79,3.09-6.88,6.88-6.88c3.79,0,6.88,3.09,6.88,6.88
			c0,18.96-15.41,34.38-34.38,34.38c-18.96,0-34.38-15.41-34.38-34.38s15.41-34.38,34.38-34.38c11.36,0,20.62-9.27,20.62-20.62
			s-9.27-20.62-20.62-20.62c-18.96,0-34.38-15.41-34.38-34.38s15.41-34.38,34.38-34.38c18.96,0,34.38,15.41,34.38,34.38
			c0,3.79-3.09,6.88-6.88,6.88c-3.79,0-6.88-3.09-6.88-6.88c0-11.36-9.27-20.62-20.62-20.62c-11.36,0-20.62,9.27-20.62,20.62
			s9.27,20.62,20.62,20.62c16.83,0,30.84,12.16,33.78,28.15c10.97,1.45,20.74,6.53,28.09,14.07v-76.6
			c0-34.11-27.77-61.88-61.87-61.88c-34.11,0-61.88,27.77-61.88,61.88c0,14.07,4.73,27.69,13.32,38.3c0,0-0.09-0.02-0.12-0.03
			c1.24,1.49,1.9,3.43,1.55,5.5c-0.64,3.73-4.06,6.36-7.92,5.61c-5.08-0.83-9.56-1.26-13.7-1.26c-41.71,0-75.62,33.92-75.62,75.62
			c0,23.26,10.21,44.32,28,58.53c8.8-4,17.86-6.84,27.4-8.56c2.44-16.58,16.72-29.35,33.97-29.35c3.79,0,6.88,3.09,6.88,6.88
			s-3.09,6.88-6.88,6.88c-11.36,0-20.62,9.27-20.62,20.62c0,11.36,9.27,20.62,20.62,20.62c18.96,0,34.38,15.41,34.38,34.38
			c0,18.96-15.41,34.38-34.38,34.38c-18.96,0-34.38-15.41-34.38-34.38c0-3.79,3.09-6.88,6.88-6.88c3.79,0,6.88,3.09,6.88,6.88
			c0,11.36,9.27,20.62,20.62,20.62c11.36,0,20.62-9.27,20.62-20.62c0-11.36-9.27-20.62-20.62-20.62
			c-15.91,0-29.29-10.88-33.19-25.58c-9.1,1.79-17.73,4.68-26.13,8.9c-35.53,17.48-57.55,52.85-57.55,92.3
			C23.65,424.45,51.95,463.4,93.39,477.51z M152.61,528.98c-2.02,2.13-6.44,3.28-9.72,0c-21.43-21.43-21.43-56.34,0-77.77
			c2.69-2.69,7.04-2.69,9.72,0c2.69,2.69,2.69,7.04,0,9.72c-16.09,16.09-16.09,42.24,0,58.33
			C155.3,521.94,155.37,526.07,152.61,528.98z M126.78,173.84c-22.75,0-41.25,18.5-41.25,41.25c0,3.79-3.09,6.88-6.88,6.88
			c-3.79,0-6.88-3.09-6.88-6.88c0-30.32,24.68-55,55-55c3.79,0,6.88,3.09,6.88,6.88S130.56,173.84,126.78,173.84z"/>
		<circle fill="#B87AB4" cx="401.78" cy="545.09" r="20.62"/>
		<circle fill="#B87AB4" cx="539.28" cy="380.09" r="20.62"/>
		<circle fill="#B87AB4" cx="484.28" cy="462.59" r="20.62"/>
		<circle fill="#B87AB4" cx="401.78" cy="50.09" r="20.62"/>
		<circle fill="#B87AB4" cx="456.78" cy="132.59" r="20.62"/>
		<circle fill="#B87AB4" cx="511.78" cy="215.09" r="20.62"/>
		<path fill="#23344A" d="M152.61,460.93c2.69-2.69,2.69-7.04,0-9.72c-2.69-2.69-7.04-2.69-9.72,0c-21.43,21.43-21.43,56.34,0,77.77
			c3.28,3.28,7.7,2.13,9.72,0c2.75-2.9,2.69-7.04,0-9.72C136.53,503.17,136.53,477.01,152.61,460.93z"/>
		<path fill="#23344A" d="M9.9,380.09c0,51.5,33.71,96.52,82.57,111.48c0.8,48.6,40.52,87.9,89.3,87.9
			c49.28,0,89.37-40.1,89.37-89.38V91.34c0-41.71-33.92-75.62-75.62-75.62S119.9,49.64,119.9,91.34c0,12.12,2.94,23.94,8.33,34.44
			c-0.47-0.01-0.99-0.07-1.46-0.07c-49.28,0-89.38,40.1-89.38,89.38c0,25.05,10.51,48.82,28.52,65.46
			C31.14,301.66,9.9,338.87,9.9,380.09z M81.2,287.79c8.41-4.23,17.03-7.12,26.13-8.9c3.9,14.7,17.28,25.58,33.19,25.58
			c11.36,0,20.62,9.27,20.62,20.62c0,11.36-9.27,20.62-20.62,20.62c-11.36,0-20.62-9.27-20.62-20.62c0-3.79-3.09-6.88-6.88-6.88
			c-3.79,0-6.88,3.09-6.88,6.88c0,18.96,15.41,34.38,34.38,34.38c18.96,0,34.38-15.41,34.38-34.38c0-18.96-15.41-34.38-34.38-34.38
			c-11.36,0-20.62-9.27-20.62-20.62c0-11.36,9.27-20.62,20.62-20.62c3.79,0,6.88-3.09,6.88-6.88s-3.09-6.88-6.88-6.88
			c-17.25,0-31.52,12.77-33.97,29.35c-9.54,1.72-18.61,4.56-27.4,8.56c-17.8-14.22-28-35.27-28-58.53
			c0-41.71,33.92-75.62,75.62-75.62c4.14,0,8.62,0.43,13.7,1.26c3.87,0.75,7.28-1.88,7.92-5.61c0.35-2.07-0.31-4.02-1.55-5.5
			c0.04,0.01,0.12,0.03,0.12,0.03c-8.59-10.61-13.32-24.22-13.32-38.3c0-34.11,27.77-61.88,61.88-61.88
			c34.11,0,61.87,27.77,61.87,61.88v76.6c-7.35-7.54-17.13-12.63-28.09-14.07c-2.94-15.99-16.95-28.15-33.78-28.15
			c-11.36,0-20.62-9.27-20.62-20.62s9.27-20.62,20.62-20.62c11.36,0,20.62,9.27,20.62,20.62c0,3.79,3.09,6.88,6.88,6.88
			c3.79,0,6.88-3.09,6.88-6.88c0-18.96-15.41-34.38-34.38-34.38c-18.96,0-34.38,15.41-34.38,34.38s15.41,34.38,34.38,34.38
			c11.36,0,20.62,9.27,20.62,20.62s-9.27,20.62-20.62,20.62c-18.96,0-34.38,15.41-34.38,34.38s15.41,34.38,34.38,34.38
			c18.96,0,34.38-15.41,34.38-34.38c0-3.79-3.09-6.88-6.88-6.88c-3.79,0-6.88,3.09-6.88,6.88c0,11.36-9.27,20.62-20.62,20.62
			c-11.36,0-20.62-9.27-20.62-20.62s9.27-20.62,20.62-20.62c16.39,0,30.11-11.53,33.53-26.9c16.08,2.86,28.34,16.88,28.34,33.78
			V341.3c-11.34-14.06-28.7-23.09-48.12-23.09c-3.79,0-6.88,3.09-6.88,6.88c0,3.79,3.09,6.88,6.88,6.88
			c26.53,0,48.12,21.59,48.12,48.12v110c0,41.71-33.92,75.63-75.62,75.63s-75.62-33.92-75.62-75.63c0-39.64,30.68-72.13,69.53-75.25
			c3.34,15.49,17.12,27.13,33.59,27.13c11.36,0,20.62,9.27,20.62,20.62c0,11.36-9.27,20.62-20.62,20.62
			c-18.96,0-34.38,15.41-34.38,34.38c0,3.79,3.09,6.88,6.88,6.88c3.79,0,6.88-3.09,6.88-6.88c0-11.36,9.27-20.63,20.62-20.63
			c18.96,0,34.38-15.41,34.38-34.38c0-18.96-15.41-34.38-34.38-34.38c-11.36,0-20.62-9.27-20.62-20.62
			c0-11.36,9.27-20.62,20.62-20.62c3.79,0,6.88-3.09,6.88-6.88c0-3.79-3.09-6.88-6.88-6.88c-16.74,0-30.7,12.03-33.74,27.89
			c-22.39,1.56-42.57,11.29-57.42,26.36c-20.38-3.8-36.32-20.89-38.99-41.34c6.22-1.35,12.15-4.4,16.96-9.23
			c2.69-2.69,2.69-7.04,0-9.72c-2.69-2.69-7.04-2.69-9.72,0c-8.06,8.06-21.11,8.06-29.17,0c-2.69-2.69-7.04-2.69-9.72,0
			c-2.69,2.69-2.69,7.04,0,9.72c5.02,5.04,11.24,8.18,17.76,9.42c2.49,24.89,19.71,45.56,43.25,52.82
			c-7.82,11.19-13.09,24.25-15.09,38.37c-41.44-14.11-69.74-53.06-69.74-97.42C23.65,340.64,45.67,305.27,81.2,287.79z"/>
		<path fill="#23344A" d="M539.28,345.72c-7,0-13.5,2.11-18.94,5.71l-31.2-31.2c-1.29-1.29-3.03-2.01-4.86-2.01H326.15v-41.25
			h130.62c1.83,0,3.57-0.72,4.86-2.01l31.2-31.2c5.44,3.6,11.94,5.71,18.94,5.71c18.96,0,34.38-15.41,34.38-34.38
			s-15.41-34.38-34.38-34.38c-18.96,0-34.38,15.41-34.38,34.38c0,7,2.11,13.5,5.71,18.94l-29.19,29.19H326.15v-68.75h75.62
			c1.83,0,3.57-0.72,4.86-2.01l31.2-31.2c5.44,3.6,11.94,5.71,18.94,5.71c18.96,0,34.38-15.41,34.38-34.38s-15.41-34.38-34.38-34.38
			c-18.96,0-34.38,15.41-34.38,34.38c0,7,2.11,13.5,5.71,18.94l-29.19,29.19h-72.78V80.44l23.47-23.47h18.47
			c3.19,15.67,17.08,27.5,33.68,27.5c18.96,0,34.38-15.41,34.38-34.38s-15.41-34.38-34.38-34.38c-16.61,0-30.49,11.83-33.68,27.5
			h-21.32c-1.83,0-3.57,0.72-4.86,2.01l-27.5,27.5c-1.29,1.29-2.01,3.03-2.01,4.86v440c0,1.83,0.72,3.57,2.01,4.86l27.5,27.5
			c1.29,1.29,3.04,2.01,4.86,2.01h21.32c3.19,15.67,17.08,27.5,33.68,27.5c18.96,0,34.38-15.41,34.38-34.38
			s-15.41-34.38-34.38-34.38c-16.61,0-30.49,11.83-33.68,27.5h-18.47l-23.47-23.47V414.47h100.28l29.19,29.19
			c-3.6,5.44-5.71,11.94-5.71,18.94c0,18.96,15.41,34.38,34.38,34.38c18.96,0,34.38-15.41,34.38-34.38
			c0-18.96-15.41-34.38-34.38-34.38c-7,0-13.5,2.11-18.94,5.71l-31.2-31.2c-1.29-1.29-3.03-2.01-4.86-2.01H326.15v-68.75h155.28
			l29.19,29.19c-3.6,5.44-5.71,11.94-5.71,18.94c0,18.96,15.41,34.38,34.38,34.38c18.96,0,34.38-15.41,34.38-34.38
			C573.65,361.13,558.24,345.72,539.28,345.72z M511.78,194.47c11.36,0,20.62,9.27,20.62,20.62s-9.27,20.62-20.62,20.62
			c-11.36,0-20.62-9.27-20.62-20.62S500.42,194.47,511.78,194.47z M456.78,111.97c11.36,0,20.62,9.27,20.62,20.62
			s-9.27,20.62-20.62,20.62c-11.36,0-20.62-9.27-20.62-20.62S445.42,111.97,456.78,111.97z M401.78,29.47
			c11.36,0,20.62,9.27,20.62,20.62s-9.27,20.62-20.62,20.62c-11.36,0-20.62-9.27-20.62-20.62S390.42,29.47,401.78,29.47z
			 M401.78,524.47c11.36,0,20.62,9.27,20.62,20.62c0,11.36-9.27,20.62-20.62,20.62c-11.36,0-20.62-9.27-20.62-20.62
			C381.15,533.73,390.42,524.47,401.78,524.47z M484.28,441.97c11.36,0,20.62,9.27,20.62,20.62c0,11.36-9.27,20.62-20.62,20.62
			c-11.36,0-20.62-9.27-20.62-20.62C463.65,451.23,472.92,441.97,484.28,441.97z M539.28,400.72c-11.36,0-20.62-9.27-20.62-20.62
			c0-11.36,9.27-20.62,20.62-20.62c11.36,0,20.62,9.27,20.62,20.62C559.9,391.45,550.64,400.72,539.28,400.72z"/>
		<path fill="#23344A" d="M126.78,160.09c-30.32,0-55,24.68-55,55c0,3.79,3.09,6.88,6.88,6.88c3.79,0,6.88-3.09,6.88-6.88
			c0-22.75,18.5-41.25,41.25-41.25c3.79,0,6.88-3.09,6.88-6.88S130.56,160.09,126.78,160.09z"/>
	</g>
</g>
</svg>
